<?xml version="1.0" encoding="utf-8"?>
<!-- Generator: Adobe Illustrator 16.0.0, SVG Export Plug-In . SVG Version: 6.00 Build 0)  -->
<!DOCTYPE svg PUBLIC "-//W3C//DTD SVG 1.0//EN" "http://www.w3.org/TR/2001/REC-SVG-20010904/DTD/svg10.dtd">
<svg version="1.0" id="Layer_1" xmlns="http://www.w3.org/2000/svg" xmlns:xlink="http://www.w3.org/1999/xlink" x="0px" y="0px"
	 width="800px" height="750px" viewBox="0 0 800 750" enable-background="new 0 0 800 750" xml:space="preserve">
<g>
	<g>
		<path fill-rule="evenodd" clip-rule="evenodd" fill="#FDFDFD" d="M401.443,760.903c-149.647,0-299.296-0.017-448.943,0.094
			c-3.748,0.003-4.595-0.843-4.593-4.592c0.103-253.303,0.103-506.604,0-759.905c-0.001-3.747,0.841-4.595,4.592-4.594
			c299.296,0.102,598.592,0.102,897.887,0.001c3.746-0.001,4.596,0.839,4.595,4.591c-0.104,253.301-0.104,506.603,0,759.906
			c0.001,3.748-0.844,4.596-4.594,4.593C700.74,760.887,551.092,760.903,401.443,760.903z"/>
		<path fill-rule="evenodd" clip-rule="evenodd" fill="#EF5742" d="M233.019,201.975c0.023-1.668,0.046-3.335,0.069-5.003
			c0.225-0.446,0.598-0.936,0.519-1.384c-2.386-13.583,0.932-27.157,0.063-40.753c-0.288-4.504-1.3-8.482-4.053-11.996
			c-1.831-2.335-4.336-4.099-7.24-3.784c-7.059,0.766-14.21,1.436-20.617,4.992c-0.606,0.475-1.295,0.782-2.033,0.975
			c-1.637,0.349-3.186,0.898-4.46,2.052c-9.324,6.055-18.25,12.647-26.765,19.794c-0.381,0.32-0.779,0.812-1.21,0.847
			c-6.644,0.544-10.958,6.268-17.169,7.687c-1.89,0.431-2.715,1.908-3.641,3.169c-3.359,4.577-5.698,9.655-6.732,15.282
			c-1.179,2.814-2.809,5.262-5.547,6.803c-1.02,0.638-1.796,1.443-1.769,2.745c0.098,4.737-2.528,7.951-5.971,10.717
			c-4.388,4.368-2.231,10.082-2.869,15.137c-0.849,6.729-1.679,13.443-3.628,19.92c-1.173,3.899,0.882,7.976-1.12,11.708
			c-0.762,10.989-0.823,21.971,0.062,32.943c1.401,13.716,4.45,26.957,11.827,38.84c1.712,2.759,3.14,5.767,5.656,7.972
			c2.346,1.069,3.234,3.647,5.246,5.064c10.828,9.128,23.407,13.474,37.484,13.742c5.372,0.162,10.743,0.161,16.109,0.152
			c5.738,0.746,10.802-1.939,15.875-3.711c7.609-2.658,15.326-5.107,22.348-9.494c3.779-2.361,8.468-3.429,12.677-5.405
			c9.744-4.572,18.297-10.781,26.736-17.253c3.506-0.58,4.287-3.924,6.198-6.132c1.559-0.637,2.803-0.036,3.94,0.986
			c0.266,0.428,0.288,0.866,0.032,1.309c-0.564,0.767-1.479,1.279-1.75,2.486c1.787-0.241,0.868-2.586,2.361-2.859
			c3.042,0.652,3.036,2.893,2.763,5.276c-6.35,5.78-11.887,11.984-13.522,20.934c-0.898,4.917-5.037,8.08-7.948,11.868
			c-0.211,0.211-0.453,0.391-0.716,0.537c0.195,0.26,0.434,0.051,0.638,0.035c0.81-0.063,1.478,0.204,2.041,0.771
			c-0.12,3.141-4.305,1.537-4.863,4.166c-0.9-0.167-1.506-1.244-2.693-0.813c-0.544,1.945,2.221,3.612,0.611,5.67
			c-2.027-2.172-4.664-0.583-6.955-1.128c-1.308-1.707,0.257-2.816,0.836-4.131c0.731-1.299-0.43-1.834-1.039-2.567
			c-2.461,0.608-2.888,2.763-3.485,4.708c-0.436,1.422-0.317,3.417-1.624,4.057c-6.623,3.243-9.706,11.074-17.191,13.122
			c-1.521,0.691-3.13,1.138-4.687,1.732c-0.952,0.236-1.913,0.415-2.896,0.439c-1.732,0.01-3.455,0.113-5.145,0.551
			c-0.78,0.111-1.554,0.087-2.328-0.05c-4.214-0.576-8.418-0.77-12.601,0.252c-2.176,0.41-4.353,0.424-6.529,0.023
			c-9.209-0.009-17.147-5.832-26.374-5.76c-3.422-2.294-7.186-4.128-9.995-7.281c-0.549-0.616-1.287-1.458-2.044-1.266
			c-5.073,1.282-7.854-2.62-11.35-4.873c-9.325-6.008-18.353-12.405-26.277-20.234c-6.761-5.891-12.069-12.931-14.595-21.523
			c-1.598-5.439-3.47-10.726-5.616-15.936c-0.644-1.563-0.76-3.779-3.275-3.818c-0.901-0.896-0.965-2.075-1.097-3.232
			c1.874-5.126,0.206-10.351-0.462-15.267c-1.192-8.786,0.023-17.236,1.068-25.796c0.201-1.652,0.173-3.332,0.559-4.954
			c1.196-3.039,2.184-6.101,1.576-9.475c-0.33-1.832,0.373-3.445,1.248-5.09c0.965-1.814,1.769-3.878-0.465-5.543
			c-0.04-2.478,0.419-4.833,1.694-6.993c0.662-0.733,1.923,0.846,1.825,0.063c-1.019-8.106,5.371-13.735,6.917-20.997
			c0.475-2.231,0.824-4.537,1.436-6.764c1.281-7.156,4.807-13.076,9.947-18.108c4.331-3.831,5.965-9.409,7.505-14.409
			c2.62-8.504,7.289-15.477,12.59-22.259c1.146-1.466,1.806-3.173,2.739-4.739c2.13-3.125,4.869-5.656,7.815-7.984
			c0.859,0.018,1.372,1.795,2.136,0.84c0.563-0.705-1.176-1.17-1.309-2.118c-0.159-2.109,1.649-2.804,2.82-3.96
			c5.29-8.643,14.639-7.729,22.765-9.368c3.825-0.771,7.937-0.173,11.919-0.119c-4.552-0.062-9.105-0.012-13.658-0.033
			c-1.312-0.006-2.701,0.228-3.614-1.099c9.19-3.343,18.835-1.93,28.271-2.712c2.663,1.097,5.467,0.789,8.236,0.822
			c0.934,0.011,2.31,0.187,0.511-1.096c4.264-1.313,8.528-2.626,12.792-3.939c3.138-0.967,6.282-0.999,9.071,0.817
			c2.177,1.417,3.681,0.885,5.142-0.88c3.218-1.039,3.735-3.902,4.483-6.618c2.684-9.735,4.042-11.056,14.179-10.488
			c6.021,0.338,11.78,0.65,17.061-2.817c5.857-1.206,7.819,0.035,10.625,6.692c1.742,5.197-0.059,9.697-2.768,14.02
			c-1.309,2.088-2.843,4.056-3.488,6.5c-3.081,8.382-6.505,16.565-10.481,24.619c-5.792,11.732-10.068,24.162-10.518,37.555
			c-0.113,3.378-1.085,6.742-4.547,8.298c-3.821,1.715-4.309,4.798-3.722,8.251c0.45,2.643,0.834,5.237,0.466,7.907
			c-0.07,0.503-0.199,0.994-0.358,1.475c-1.297,2.882-1.386,6.473-4.724,8.176c-2.836,0.6-4.764-1.863-7.425-2.215
			c-1.882-0.25-1.716-2.566-1.641-4.22C233.989,205.259,234.881,203.386,233.019,201.975z"/>
		<path fill-rule="evenodd" clip-rule="evenodd" fill="#EF5742" d="M588.682,177.89c1.181-1.288,2.678-1.22,4.215-0.985
			c3.923,1.183,7.775,0.066,11.686-0.162c6.056-0.354,12.155-0.43,18.228-0.01c5.64,2.425,6.13,5.538,1.974,9.921
			c-2.189,2.308-6.06,2.674-7.03,6.275c-0.368,3.383,2.914,2.655,4.423,3.924c-0.396,2.203,1.477,1.688,2.551,2.137
			c10.976,4.592,22.426,8.118,31.817,16.007c8.396,7.053,14.673,15.268,17.027,26.158c0.244,1.129,0.631,2.239,1.229,3.262
			c1.806,3.438,2.713,7.101,2.549,10.962c-0.43,10.169,1.369,20.448-1.517,30.496c-0.274,0.958-0.602,1.88-1.083,2.739
			c0.031,4.209-2.907,7.977-1.855,12.347c-0.26,0.695-0.521,1.391-0.78,2.086c-1.186,0.59-2.333,1.14-2.849,2.562
			c-6.235,17.161-16.806,31.702-28.223,45.618c-4.597,5.603-10.171,10.47-17.343,12.904c-7.489,3.879-15.344,4.833-23.624,3.304
			c-3.424-0.633-6.06-2.677-8.982-4.197c-7.375-3.835-14.581-7.925-19.833-14.672c-1.638-2.102-3.489-4.035-4.214-6.695
			c-0.43-1.708-1.163-3.262-2.359-4.585c-0.488-0.656-0.854-1.373-1.154-2.131c-6.283-16.978-6.931-34.522-5.216-52.289
			c0.349-3.612-0.95-7.231,0.151-10.82c-0.191-11.058,3.972-21.4,5.282-32.208c0.847-2.9,1.355-5.82,0.439-8.815
			c0.535-1.422,1.071-2.846,1.607-4.27c0.368,0.199,0.663,0.478,0.89,0.796c2.147-0.036,0.984-1.816,1.307-2.703
			c4.831-13.291,9.992-26.44,16.48-39.028c0.99-1.92,2.26-3.748,4.048-5.009C589.989,179.774,589.281,178.894,588.682,177.89z"/>
		<path fill-rule="evenodd" clip-rule="evenodd" d="M253.963,446.942c0.054-3.994,0.09-7.987,0.167-11.98
			c0.076-3.969,0.046-7.597-2.787-11.167c-3.261-4.112,2.738-13.077,8.541-12.969c14.814,0.274,29.66-1.164,44.436,0.28
			c18.855,1.843,37.535,4.874,55.751,10.266c1.533,0.454,3.309,0.851,4.328,2.322s2.241,2.098,3.75,0.95
			c1.895-1.438,3.334-0.071,4.389,0.913c1.666,1.556,2.513,2.846,5.57,1.896c2.828-0.881,2.991,3.027,3.196,5.102
			c0.226,2.274-1.56,3.926-3.839,3.453c-2.35-0.487-4.132-0.09-6.033,1.21c-2.069,1.414-4.207,6.139-6.607-0.052
			c-0.373-0.963-3.666-0.915-5.631-1.11c-2.649-0.263-5.282-0.469-7.643-1.864c-0.286-0.169-0.751-0.55-0.827-0.483
			c-3.879,3.421-8.039,0.858-12.141,0.808c-6.292-0.079-12.21,2.166-19.016,0.449c-5.295-1.335-12.001-1.895-17.684,1.638
			c-2.323,1.444-5.192,0.684-7.847,0.462c-7.125-0.595-9.812,1.388-12.099,8.25c-2.076,6.229-3.535,12.594-7.794,18.096
			c-3.589,4.638-0.567,10.04,5.3,10.1c7.688,0.078,15.318,1.086,22.746,2.467c7.69,1.429,15.453-0.039,23.024,1.888
			c4.39,1.116,5.346,2.286,4.212,6.729c-3.394-3.475-4.243-3.364-5.36,1.516c-0.549,2.402-2.125,2.773-3.816,3.263
			c-15.342,4.438-29.535,11.97-44.801,16.597c-1.749,0.53-3.15,1.375-3.346,3.246c-1.66,15.788-2.689,31.594,5.81,46.006
			c4.169,7.069,9.151,13.75,18.517,14.143c5.409,0.227,10.208-2.521,15.317-3.725c10.003-2.358,17.697-9.146,26.795-13.198
			c2.528-1.126,4.692-2.088,7.522-1.108c2.498,0.865,4.552,0.452,4.843-2.986c0.203-2.404,2.235-3.862,4.302-4.293
			c2.575-0.535,5.302-0.172,6.245-3.566c0.215-0.776,1.38-0.827,2.203-0.423c1.017,0.498,1.464,1.425,1.243,2.477
			c-0.551,2.63-1.26,5.229-3.92,6.606c-1.665,0.862-3.074,2-4.031,3.614c-1.176,1.983-3.32,4.349,1.511,4.284
			c1.211-0.018,2.348,0.417,2.611,1.815c0.256,1.358-0.46,2.321-1.693,2.68c-3.187,0.927-2.67,4.941-6.029,6.302
			c-6.808,2.758-9.518,10.605-15.862,14.244c-2.868,1.645-5.094,5.016-9.234,2.872c-1.256-0.65-2.06,0.76-2.757,1.651
			c-2.367,3.026-6.775,0.214-9.142,3.218c-0.028,0.036-0.405-0.084-0.431-0.181c-1.934-7.188-4.709-0.756-7.188-0.831
			c-5.907-0.181-12.087-0.178-17.511-4.215c-2.565-1.909-6.771-0.78-9.998-3.158c-6.674-4.919-11.878-10.828-16.014-18.016
			c-4.492-7.804-7.724-16.079-10.317-24.592c-2.348-7.706-4.074-15.609-5.875-23.472c-0.64-2.794-1.917-4.438-4.825-4.838
			c-6.484-0.892-12.249-4.015-18.35-6.095c-3.407-1.162-5.144-4.637-8.159-6.417c-0.361-0.213-0.782-1.101-0.695-1.185
			c2.813-2.752,0.359-8.058,5.795-9.97c7.148-2.514,13.954-6.055,21.236-8.337c3.396-1.064,5.438-2.662,5.48-6.933
			c0.038-3.809,0.68-7.974,1.455-11.447c0.793-3.551,2.365-7.323,3.025-11.186c0.307-0.323,0.683-0.521,1.113-0.617
			c2.348-0.508,1.672-2.832,2.954-4.737c-1.513,1.303-1.484,2.979-2.83,3.581C254.748,447.363,254.333,447.269,253.963,446.942z"/>
		<path fill-rule="evenodd" clip-rule="evenodd" d="M343.038,655.844c4.493,4.515,6.842,10.087,7.828,16.267
			c0.512,3.212,1.444,5.606,5.424,4.261c1.036-0.35,1.995-0.192,2.809,0.495c7.435,6.281,15.85,11.166,23.945,16.466
			c12.646,8.279,26.277,7.81,39.823,2.526c9.14-3.564,11.656-13.008,16.676-20.26c5.291-7.646,4.591-16.574,6.259-24.983
			c0.435-2.193,1.071-4.144,2.266-5.881c1.546-2.249,2.744-4.232-0.279-6.252c-0.908-0.606-1.03-1.609-0.367-2.639
			c3.483-5.41,3.788-11.387,2.4-17.367c-1.01-4.351,1.438-8.844-1.14-13.127c-1.012-1.682,0.907-2.92,2.329-3.849
			c2.38-1.553,2.725-3.149-0.337-4.037c-2.616-0.759-3.657-1.526-1.379-3.912c1.313-1.375,0.629-3.142,0.365-4.766
			c-1.173-7.22-2.108-14.457-1.654-21.8c2.781-2.417-1.77-3.177-1.154-5.105c0.06-3.847-0.219-7.645-1.816-11.214
			c-0.529-1.181-0.966-2.673-2.586-2.686c-1.53-0.013-1.488,1.587-2.054,2.52c-4.298,7.097-8.01,14.517-12.637,21.452
			c-5.369,8.051-13.093,9.493-21.372,7.864c-3.628-0.714-6.396-4.682-8.522-8.244c-8.286-13.886-9.024-29.568-10.9-45.006
			c-1.396-11.484,0.145-22.938,0.028-34.404c-0.016-1.5,0.205-2.746,1.833-3.033c5.053-0.891,9.092-3.933,13.285-6.483
			c3.14-1.911,4.579,0.165,6.438,1.646c2.13,1.696,1.282,3.23-0.123,5.061c-2.18,2.842-2.57,6.164-2.548,9.801
			c0.051,8.309-0.667,16.693-0.485,24.921c0.251,11.368,0.85,22.864,2.872,34.174c0.608,3.4,0.331,6.949,0.76,10.394
			c0.266,2.136,1.034,4.325,3.287,5.254c2.538,1.047,4.036-0.944,5.582-2.361c12.121-11.112,18.898-25.263,23.998-40.646
			c3.432-10.356,4.118-20.587,3.515-31.369c-0.69-12.332-2.369-24.843,1.398-37.078c0.322-1.048,0.131-2.336-0.1-3.455
			c-0.819-3.968,1.057-6.058,4.72-6.705c5.956-1.053,11.499-2.984,16.424-6.606c3.551-2.611,5.22,1.553,7.753,2.484
			c2.377,0.874,1.32,2.843,0.614,4.638c-7.501,19.08-11.499,38.747-10.29,59.38c0.387,6.613,0.943,13.688,0.102,19.809
			c-1.309,9.504-1.187,18.883-1.215,28.265c-0.054,17.429,0.194,34.861,0.158,52.295c-0.025,11.656-2.77,23.001-3.286,34.533
			c-0.702,15.708-5.877,30.55-7.879,45.985c-1.201,9.265-10.549,16.838-19.979,17c-4.984,0.085-9.947,1.28-14.812,1.426
			c-5.769,0.172-11.844,1.127-17.547-1.21c-1.914-0.784-3.944-0.562-5.928-0.337c-3.885,0.44-7.245-0.537-9.953-3.445
			c-0.791-0.85-1.731-2.209-2.857-1.479c-4.039,2.618-8.331-0.346-10.258-1.812c-12.994-9.877-24.746-21.053-27.416-38.438
			c-0.44-2.867-1.776-5.286-3.314-7.646C341.553,656.065,342.001,655.656,343.038,655.844z"/>
		<path fill-rule="evenodd" clip-rule="evenodd" fill="#EF5742" d="M364.462,195.883c2.672,0.664,2.658-2.457,4.39-3.118
			c2.879-0.279,2.896-2.779,3.449-4.693c0.639-2.21,1.168-4.4,2.326-6.45c1.541-2.726,3.303-4.871,6.76-4.933
			c1.101-0.02,2.397-0.118,2.54-1.721c0.56-0.39,1.118-0.78,1.678-1.171c0.277,0.019,0.556,0.036,0.833,0.052
			c4.195-0.349,8.39-0.347,12.589-0.031c2.015,0.361,2.732,1.861,3.167,3.607c1.817,3.981,1.237,8.028-0.748,11.551
			c-4.055,7.198-6.173,14.766-7.762,22.91c-2.127,10.895-3.136,22.043-6.437,32.711c-0.692,2.238-0.836,4.579-1.074,6.896
			c-0.102,0.534-0.221,1.067-0.342,1.598c-0.973,3.126-0.609,6.382-0.899,9.577c-0.672,2.021-2.289,3.173-3.981,4.223
			c-1.229,0.764-2.894,1.063-3.537-0.27c-1.738-3.603-5.66-5.597-6.798-9.568c-1.68-8.056-4.094-15.952-4.183-24.336
			c-0.044-4.23-2.045-8.295-2.165-12.629c-0.037-1.331-1.036-1.988-2.388-1.984c-1.039-1.017-2.078-2.033-3.117-3.049
			c0.507-1.162,0.071-1.915-1.068-2.265c-2.069-0.635-3.849-1.685-5.651-2.931c-2.589-1.789-5.349-1.044-7.808,0.794
			c-6.555,4.899-10.292,16.81-7.803,24.629c0.473,1.486,1.368,1.682,2.637,1.478c1.272,1.104,0.82,2.704,1.171,4.073
			c-1.353,2.636,0.09,4.944,1.228,7.01c6.486,11.773,14.65,22.301,24.208,31.753c8.689,10.892,19.902,19.499,27.906,31.031
			c4.513,6.503,7.672,13.454,8.621,21.33c0.167,1.379,0.417,2.603,1.548,3.504c1.372,1.302,2.252,2.74,1.294,4.682
			c0.191,0.939-0.02,1.666-1.039,1.966c-2.743,1.507-1.765,3.705-1.085,5.847c0.046,0.825-0.252,1.433-1.077,1.709
			c-1.132-0.018-1.781,0.619-2.319,1.552c-8.255,14.325-19.469,25.396-34.972,31.741c-0.609,0.249-1.149,0.803-1.807,0.786
			c-7.588-0.183-15.192,1.276-22.77-0.199c-3.844-2.304-7.584-4.761-12.428-4.443c-2.59,0.17-4.698-1.476-6.924-2.601
			c-4.9-2.478-9.629-5.249-14.15-8.351c-1.921-1.318-3.888-2.847-2.665-5.735c2.935-7.514,5.296-15.33,9.296-22.322
			c2.812-4.915,4.422-10.745,9.328-14.334c1.438,0.351,2.926-2.141,4.348,0.067c1.028,3.544,0.448,7.096,0.081,10.644
			c-2.54,5.887-3.294,11.974-2.022,18.281c3.307,4.551,7.048,6.859,13.126,4.632c3.978-1.459,8.41-1.843,12.43-3.463
			c4.046-1.632,7.623-3.652,9.971-7.76c2.073-3.627,6.003-5.622,9.396-7.962c2.344-1.616,4.732-3.094,6.082-5.726
			c0.801-3.062,2.284-5.839,3.687-8.64c1.799-3.593,1.438-6.9-0.709-10.266c-4.813-7.552-10.314-14.551-16.403-21.102
			c-5.975-7.354-12.248-14.447-18.639-21.44c-9.861-10.792-17.479-22.967-22.262-36.818c-0.755-2.185-2.25-3.62-3.689-5.202
			c-0.265-0.673-0.53-1.347-0.794-2.021c2.018-1.574,1.116-3.558,0.76-5.461c-2.622-13.991-4.241-12.128,8.415-21.464
			c1.467-1.083,3.061-1.94,4.69-2.747c1.125-0.4,2.269-0.463,3.421-0.18c0.401-0.407,0.982,1.474,1.29-0.131
			c-0.062-0.38,0.042-0.678,0.329-0.907c2.853,0.073,4.956-0.887,7.338-2.848c3.894-3.206,9.036-1.185,13.662-1.24
			C358.826,197.12,362.154,194.463,364.462,195.883z"/>
		<path fill-rule="evenodd" clip-rule="evenodd" d="M480.908,541.144c-0.177-25.597,6.866-45.688,15.72-65.312
			c1.138-2.525,2.921-4.234,5.629-5.27c9.586-3.667,18.98-7.91,29.731-5.755c5.929,1.189,9.704,4.849,9.869,10.96
			c0.397,14.803,0.825,29.595,3.06,44.266c0.51,3.348-1.063,5.252-4.036,6.544c-10.767,4.682-21.539,9.419-32.974,12.167
			c-4.413,1.062-5.285,3.014-5.188,7.203c0.252,10.737,2.599,20.366,11.242,27.638c7.175,6.037,13.729,6.153,20.771,0.08
			c1.226-1.058,2.325-2.896,4.145-1.395c1.514,1.248,1.153,3.097,0.121,4.546c-2.146,3.014-3.647,5.589-8.362,6.966
			c-4.726,1.382-9.587,1.644-13.975,1.896c-6.049,0.347-12.792-0.744-17.915-5.354c-4.72-4.248-7.825-9.574-11.326-14.823
			C481.505,556.638,481.257,547.2,480.908,541.144z"/>
		<path fill-rule="evenodd" clip-rule="evenodd" fill="#EF5742" d="M460.009,230.808c1.415,3.047,4.051,3.353,6.938,3.09
			c-0.592,2.985-2.4,1.886-4.007,1.738c4.72,0,9.572,1.262,14.172-1.335c2.256-1.273,4.591-1.886,7.15-1.278
			c0.992,0.235,1.942,0.657,2.016,1.859c0.074,1.222-0.831,1.911-1.816,1.983c-3.558,0.26-5.924,2.761-8.741,4.403
			c-0.398,0.255-0.83,0.448-1.281,0.587c-1.522,0.314-3.126,0.452-4.217,1.803c-7.206,4.475-12.83,11.125-20.53,14.927
			c-4.58,0.09-7.377-3.498-10.762-5.612c-3.866-2.417-7.44-5.453-10.84-8.602c-3.071-2.846-4.614-6.012-2.728-10.154
			c5.203-8.617,5.409-18.367,6.07-27.934c0.476-6.877,1.998-13.495,3.901-20.028c1.306-4.483,2.345-8.996,3.193-13.571
			c1.791-9.656,1.798-9.654,11.255-11.419c2.055-0.607,4.094-1.31,6.227-1.667c1.294-0.217,0.97-0.995,0.591-1.78
			c6.143-2.739,12.267-3.207,18.361,0.145c-0.841,3.115,2.308,2.436,3.017,2.313c7.328-1.274,14.453,0.857,21.675,0.993
			c3.436,0.373,6.692,1.45,9.856,2.752c1.869,0.77,3.59,1.684,5.442,0.104c1.817,0.161,3.545,0.591,5.051,1.686
			c0.952,2.026,3.101,2.396,4.791,3.345c2.267,1.274,3.525,2.94,3.194,5.625c-0.342,2.782-2.445,3.196-4.646,3.636
			c-5.928,1.188-11.842,1.049-17.837,0.409c-9.485-1.012-18.933-1.06-27.64,3.796c-7.229,4.032-10.585,10.733-12.347,18.417
			c-1.878,8.187-2.591,16.673-7.259,24.077C457.074,226.996,456.097,229.948,460.009,230.808z"/>
		<path fill-rule="evenodd" clip-rule="evenodd" fill="#EF5742" d="M530.938,295.961c-0.358,4.482,0.854,9.181-1.843,13.34
			c-0.558-0.171-1.522-0.782-1.586,0.063c-0.284,3.813-2.017,7.284-2.332,11.098c-0.476,5.749-1.259,11.479-3.951,16.713
			c-1.182,2.3-0.78,4.851-1.357,7.242c-1.266,5.08-4.951,8.703-8.19,12.364c-6.586,7.441-12.986,15.179-21.604,20.529
			c-11.183,6.155-22.227,5.841-33.91,0.709c-10.592-4.65-20.167-10.868-29.995-16.748c-1.443-0.863-2.691-1.963-3.412-3.546
			c-1.832-3.95-2.982-8.075-3.208-12.447c-0.07-1.393-0.066-2.818,1.477-3.327c1.295-0.428,2.088,0.67,2.887,1.52
			c3.064,3.256,5.097,7.323,8.272,10.487c8.247,3.035,16.215,7.655,25.541,4.347c0.626-0.223-0.193-0.031,0.439-0.236
			c16.695-8.988,33.476-17.803,45.083-33.677c5.032-6.884,9.334-14.101,12.407-22.053c6.683-12.073,3.235-23.993-0.537-35.902
			c-1.412-8.327-6.653-14.672-11.189-21.354c-1.646-2.424-4.649-3.113-7.078-4.526c-1.126-0.654-2.627-1.33-2.112-2.956
			c0.521-1.652,2.123-1.203,3.42-1.139c3.498,0.172,6.225,2.235,9.115,3.824c12.924,7.102,21.151,17.935,22.372,32.597
			c0.69,8.289,0.743,16.889-0.835,25.272C529.234,297.095,529.174,295.694,530.938,295.961z"/>
		<path fill-rule="evenodd" clip-rule="evenodd" fill="#F0503A" d="M530.938,295.961c-2.443,1.498,0.619,6.714-2.979,6.108
			c-2.194-0.37,0.097-4.579,0.113-7.063c0.055-7.982,0.58-15.966,0.025-23.946c-0.613-8.809-5.097-16.262-11-21.926
			c-5.795-5.559-12.643-10.82-21.658-11.495c11.896,5.881,17.715,16.016,20.489,28.327c-0.449,0.708-0.852,1.506-1.929,0.985
			c-2.327-5.271-4.125-10.754-7.591-15.529c-6.688-9.215-16.585-12.689-28.515-9.604c-0.851-0.764-2.198,0.199-2.966-0.854
			c2.79-3.086,5.745-5.869,10.445-5.702c-2.901-2.044-5.457-1.366-8.132,0.495c-2.967,2.066-12.179,1.881-15.556-0.137
			c1.466-1.544,4.046,0.357,5.261-1.722c30.418-10.116,65.76,11.651,65.016,45.732C531.844,285.084,532.51,290.596,530.938,295.961z
			"/>
		<path fill-rule="evenodd" clip-rule="evenodd" fill="#F0503A" d="M460.009,230.808c-0.168,0.935,0.213,2.224-0.888,2.633
			c-1.163,0.433-1.807-0.636-2.179-1.545c-1.224-2.984-2.037-5.909,0.566-8.749c2.265-2.47,2.729-5.644,3.642-8.825
			c2.641-9.195,2.697-19.354,9.02-27.277c3.12-3.909,7.292-6.741,12.088-8.03c8.195-2.202,16.504-2.743,25.021-1.278
			c5.696,0.979,11.552,0.314,17.288-0.762c1.304-0.244,2.259-0.613,2.284-2.06c0.024-1.431,0.531-3.053-1.338-3.867
			c-1.501-0.654-2.913-1.678-4.474-1.988c-2.662-0.53-1.568-1.899-1.036-3.25c5.143,0.71,9.611,2.31,10.83,8.202
			c-0.552,1.085-0.363,2.1,0.29,3.071c-7.981,4.323-16.371,5.66-25.329,3.843c-9.527-1.931-18.8-0.416-27.601,3.333
			c-5.003,2.132-7.821,6.662-9.114,11.84c-1.595,6.394-3.625,12.71-4.158,19.338c-0.222,2.743-1.578,5.073-2.935,7.327
			C460.467,225.288,459.768,227.904,460.009,230.808z"/>
		<path fill-rule="evenodd" clip-rule="evenodd" fill="#F1503A" d="M246.968,204.978c-0.093-3.128-0.245-6.215-0.733-9.352
			c-0.586-3.777,0.06-7.401,4.814-9.1c3.312-1.183,3.782-5.06,3.763-8.022c-0.038-5.997,1.468-11.5,2.998-17.231
			c2.871-10.752,7.414-20.56,12.742-30.259c2.336-4.252,2.882-9.609,5.397-14.042c2.112,1.717-0.188,4.122,0.934,5.994
			c-0.417,4.072-2.311,7.599-4.294,11.036c-9.165,15.878-14.596,32.88-15.733,51.216c-0.059,0.948-0.446,1.875-0.68,2.812
			c-1.12,1.259-3.164,0.453-4.208,1.883c-1.001,0.356-2.003,0.713-3.004,1.069c-1.35,3.239,0.635,6.484-0.018,9.718
			C248.627,202.271,249.781,204.551,246.968,204.978z"/>
		<path fill-rule="evenodd" clip-rule="evenodd" fill="#F0533D" d="M273.958,323.958c-7.711,7.248-16.641,12.606-25.937,17.594
			c-8.05,4.32-16.508,7.798-24.822,11.331c-8.611,3.659-17.453,7.826-27.241,8.064c-0.57-0.993,0.025-1.6,0.721-2.173
			c0.713-0.43,1.721-0.097,2.302-0.879c8.096-3.361,16.648-5.394,24.729-8.891c15.25-6.6,30.536-13.031,43.72-23.451
			c0.766-0.604,1.708-0.985,2.568-1.47C271.338,324.703,272.606,322.987,273.958,323.958z"/>
		<path fill-rule="evenodd" clip-rule="evenodd" fill="#F1523C" d="M200.966,143.979c2.055-5.129,7.464-2.838,10.955-4.88
			c1.327-0.775,3.205-0.573,4.812-0.913c10.151-2.15,18.25,4.217,18.157,14.783c-0.08,9.09,0.704,18.185-0.746,27.297
			c-0.71,4.472-0.938,9.305,0.971,13.747c0.965,2.246,0.278,3.09-2.029,2.958c-2.592-6.505-2.271-13.241-1.74-20.035
			c0.747-9.559,1.701-19.154-0.572-28.642c-1.395-5.823-4.058-7.069-10.124-6.764c-6.549,0.33-12.622,2.093-18.662,4.302
			C201.541,145.274,201.148,144.685,200.966,143.979z"/>
		<path fill-rule="evenodd" clip-rule="evenodd" fill="#F05540" d="M450.937,161.979c-0.114,0.121-0.233,0.353-0.341,0.347
			c-8.604-0.429-10.205,5.207-11.04,12.113c-1.106,9.145-5.199,17.658-6.215,26.854c-0.562,5.08-1.357,10.184-1.3,15.269
			c0.078,6.949-2.703,12.728-6.099,18.409c-1.169-0.661-0.908-2.246-1.938-2.998c4.961-7.998,4.255-17.125,4.837-25.899
			c0.653-9.853,3.889-18.947,6.891-28.157c1.974-1.492,1.124-3.199,0.37-4.898c0.144-0.373,0.288-0.747,0.432-1.12
			c1.859-2.291,0.441-5.005,0.967-7.47c0.652-1.697,2.366-2.019,3.69-2.849c1.098-0.058,2.145-0.435,3.242-0.508
			C446.547,161.779,449.015,159.926,450.937,161.979z"/>
		<path fill-rule="evenodd" clip-rule="evenodd" fill="#F0513A" d="M423.937,356.955c2.187,5.095,7.908,5.448,11.681,8.54
			c8.049,6.597,17.958,10.484,27.595,13.959c8.867,3.198,18.314,1.554,26.72-3.5c0.928,1.059,0.78,2.145,0.087,3.247
			c-11.087,8.201-22.433,5.729-33.819,0.79c-11.614-5.036-22.447-11.479-32.939-18.508c-1.568-1.051-3.568-2.022-3.254-4.529
			C421.316,355.845,422.627,356.056,423.937,356.955z"/>
		<path fill-rule="evenodd" clip-rule="evenodd" fill="#F25039" d="M384.945,251.967c-0.163-8.213,4.002-15.676,4.295-23.735
			c0.275-7.607,3.77-14.508,3.884-22.171c0.087-5.845,3.506-10.904,6.256-15.955c2.128-3.909,3.56-7.76,1.567-12.133
			c1.029-0.864,2.072-0.692,3.119-0.039c2.229,2.34,2.668,4.883,0.802,7.634c-7.525,11.09-8.812,24.013-11.161,36.71
			c-1.917,10.356-3.212,20.879-6.622,30.929C386.112,253.244,385.548,252.573,384.945,251.967z"/>
		<path fill-rule="evenodd" clip-rule="evenodd" fill="#F0523C" d="M515.929,302.961c-1.142,8.359-6.037,15.003-11.03,21.146
			c-5.388,6.627-10.863,13.351-17.901,18.559c-6.38,4.721-13.775,7.629-20.295,12.095c-2.37,1.625-4.723,3.656-7.767,4.194
			c-1.765,0.249-4.272,2.028-3.997-1.937c0.23-0.206,0.49-0.255,0.779-0.144c1.761-0.586,3.813-0.384,5.219-1.928
			c7.896-4.747,16.206-8.931,23.599-14.363c12.816-9.417,22.179-21.831,28.373-36.552c0.178-0.424,0.545-0.768,0.824-1.149
			c0.507-0.464,1.085-0.581,1.732-0.351C515.62,302.675,515.774,302.817,515.929,302.961z"/>
		<path fill-rule="evenodd" clip-rule="evenodd" fill="#F04E37" d="M623.915,362.954c10.817-4.884,17.916-13.771,24.493-23.102
			c4.636-6.577,9.378-13.172,13.08-20.276c2.439-4.683,6.238-8.927,6.487-14.684c0.129-2.997,1.951-3.031,4.139-1.845
			c-10.263,23.967-22.043,46.827-44.983,61.517c-0.952,0.608-2.067,0.961-3.107,1.432c-0.968,0.564-1.953,0.615-2.35-0.562
			C621.005,363.454,623.105,363.737,623.915,362.954z"/>
		<path fill-rule="evenodd" clip-rule="evenodd" fill="#F0523C" d="M672.909,243.967c-2.641-14.178-10.748-24.067-22.839-31.8
			c-8.99-5.748-18.655-9.128-28.598-12.227c-0.824-0.257-1.876-0.482-1.868-1.324c0.016-1.524,1.449-1.538,2.571-1.764
			c25.098,6.484,45.808,18.216,53.884,45.057C675.501,243.348,674.78,244.539,672.909,243.967z"/>
		<path fill-rule="evenodd" clip-rule="evenodd" fill="#F0543F" d="M559.924,271.965c-0.15,11.479-1.143,22.881-0.468,34.458
			c0.597,10.241,2.904,19.832,5.466,29.536c-0.511,1.434,0.631,3.316-1.191,4.395c-7.974-15.233-9.094-31.692-8.665-48.429
			c0.157-6.011,2.149-11.882,1.369-17.958C557.013,272.287,558.364,271.945,559.924,271.965z"/>
		<path fill-rule="evenodd" clip-rule="evenodd" fill="#EF4E38" d="M200.966,143.979c1.575-0.063,1.647,0.704,1.023,1.855
			c-9.751,3.841-17.634,10.504-25.684,16.934c-3.222,2.574-6.625,4.922-9.9,7.43c-1.442,1.104-2.614,2.251-4.777,1.235
			c-3.063-1.438-2.693,2.739-4.684,3.24c-2.157,0.025-3.046,2.522-5.154,2.642c-2.564-1.034-3.393,0.881-4.634,2.499
			c-3.617,4.716-4.225,10.552-6.204,15.874c-0.793-0.42-1.622-0.8-1.983-1.719c-0.055-7.759,3.647-14.983,9.2-18.546
			c3.938-2.526,7.967-6.756,13.121-7.172c3.271-0.265,5.721-1.493,7.914-3.434c8.005-7.091,16.748-13.147,25.765-18.839
			c1.319-0.693,2.9-0.863,4-1.996C199.635,143.981,200.301,143.98,200.966,143.979z"/>
		<path fill-rule="evenodd" clip-rule="evenodd" fill="#EF4F39" d="M563.73,340.353c0.408-1.461-0.324-3.233,1.191-4.395
			c0.333,0.334,0.666,0.667,0.999,1c0.686,1.323,0.877,2.894,1.999,3.999c4.282,7.5,9.445,13.878,17.881,17.335
			c3.158,1.294,6.142,3.567,9.131,5.473c5.096,3.251,10.345,3.249,16.031,2.796c4.646-0.371,8.702-2.185,12.952-3.607
			c-0.27,1.025-3.832,2.168,0.108,3.042c-10.71,5.61-21.132,5.945-32.106-0.054c-10.091-5.518-19.385-11.6-25.898-21.318
			C565.098,343.253,564.146,341.966,563.73,340.353z"/>
		<path fill-rule="evenodd" clip-rule="evenodd" fill="#F0513A" d="M317.833,231.001c3.008-0.038,4.031,1.809,4.858,4.428
			c4.252,13.474,11.744,25.111,20.948,35.684c6.049,6.948,12.318,13.707,18.435,20.597c0.502,0.564,0.595,1.492,0.876,2.25
			c-1.74,1.361-2.361-0.548-3.423-1.168c-1.553-0.973-2.454-2.623-3.87-3.738c-9.415-11.323-20.068-21.667-27.517-34.547
			C323.834,247.063,319.649,239.546,317.833,231.001z"/>
		<path fill-rule="evenodd" clip-rule="evenodd" fill="#F1533D" d="M117.979,259.966c-0.239-12.138,4.843-23.624,4.647-35.633
			c-0.074-4.562-0.318-8.292,3.349-11.362c1.132,0.741,0.429,2.021,0.871,2.965c-1.265,4.63,0.727,9.32-0.675,14.097
			c-1.993,6.797-3.15,13.836-3.795,20.937c-0.15,1.654-0.5,3.241-0.063,4.892c0.576,2.182,1.78,4.379-1.692,5.61
			c-1.531,0.542-0.896,2.602-0.875,4.083c0.097,6.802,0.132,13.605,0.188,20.408c-0.658,0.287-1.164,0.118-1.518-0.505
			C117.453,276.975,118.242,268.461,117.979,259.966z"/>
		<path fill-rule="evenodd" clip-rule="evenodd" fill="#F0513A" d="M402.938,335.957c-0.854-0.145-1.798-0.445-1.836-1.377
			c-0.733-17.963-12.87-29.268-24.134-40.966c-4.224-4.386-8.685-8.504-12.025-13.646c0.438-0.797,1.349-0.465,1.97-0.824
			c15.141,15.651,33.209,29.234,37.277,52.715C403.732,333.213,404.321,334.887,402.938,335.957z"/>
		<path fill-rule="evenodd" clip-rule="evenodd" fill="#F14D35" d="M339.958,382.941c4.482,0.001,8.997-0.344,13.44,0.073
			c9.969,0.936,17.945-3.72,25.122-9.404c7.956-6.303,15.271-13.487,19.712-22.98c0.736-1.574,1.988-2.216,3.612-0.966
			c-7.438,15.274-19.087,26.331-34.281,33.623c-4.886,2.345-10.351,1.884-15.661,1.534c-1.606-0.773-3.182-0.213-4.348-0.347
			c0.345-0.359,1.011-0.063,1.643,0.626c-3.925,1.343-7.708,1.3-11.246-1.147C337.944,382.275,338.789,382.285,339.958,382.941z"/>
		<path fill-rule="evenodd" clip-rule="evenodd" fill="#F0543E" d="M376.945,334.956c-2.421,5.626-8.845,6.595-12.541,10.754
			c-0.751,0.845-2.242,1.227-2.65,2.149c-4.045,9.141-12.918,9.806-20.877,12.08c-0.626,0.178-1.441-0.086-1.962,0.213
			c-6.45,3.725-10.93,0.59-14.963-4.199c0.536-0.665,1.16-1.169,2.075-1.147c0.975,0.766,1.949,1.532,2.924,2.297
			c4.178,2.29,8.012,0.05,11.943-0.905c7.771-1.379,14.768-3.507,19.564-10.92c3.277-5.064,10.027-6.848,14.141-11.466
			C375.872,333.188,376.442,334.003,376.945,334.956z"/>
		<path fill-rule="evenodd" clip-rule="evenodd" fill="#F04E37" d="M195.971,383.95c2.332-0.001,4.664-0.001,6.995-0.001
			c4.333-0.777,8.667-0.778,13,0.001c0.666-0.001,1.332-0.001,1.998-0.001c1.499-1.176,3.512,0.231,5-0.996
			c0.998-0.004,1.995-0.007,2.993-0.01c1.233-0.869,3.314-0.032,4.007-1.99c3.774-1.12,6.253-3.895,9.127-6.406
			c4.973-4.346,9.574-8.706,11.711-15.147c0.462-1.393,1.834-1.741,3.137-2.335c0.734,1.482-1.071,2.063-0.831,3.184
			c0.463,0.595,0.479,1.254,0.29,1.944c-1.577,1.99-0.902,4.729-2.245,6.8c-8.88,6.738-16.575,15.351-28.409,17.375
			c-1.947,0.333-3.804,0.819-5.779,0.573c-1.089-1.219-2.46-0.564-3.698-0.487c-4.549,0.283-9.094,1.031-13.61-0.358
			c-0.979-0.302-1.933,0.089-2.69,0.825c-1.423,0.117-2.88,0.479-4.145-0.566C191.947,383.033,193.717,383.175,195.971,383.95z"/>
		<path fill-rule="evenodd" clip-rule="evenodd" fill="#EF5039" d="M120.981,344.952c9.6,8.96,20.83,15.771,31.212,23.698
			c0.392,0.3,0.849,0.916,1.167,0.852c7.794-1.58,10.795,6.205,16.609,8.451c-0.409,0.89-1.125,1.453-1.98,1.87
			c-2.608-0.373-4.501-1.811-6.167-3.801c-1.8-2.152-3.356-5.461-7.047-2.299c-0.337,0.289-1.68-0.131-2.217-0.605
			c-10.812-9.562-24-16.17-33.713-27.091c0.116-0.649,0.492-1.106,1.049-1.433C120.323,344.51,120.686,344.63,120.981,344.952z"/>
		<path fill-rule="evenodd" clip-rule="evenodd" fill="#F1543E" d="M588.682,177.89c1.457,0.256,2.933,0.476,3.966,2.43
			c-6.349,1.084-7.299,6.862-9.621,11.253c-5.627,10.637-9.237,22.161-13.838,33.254c-0.422,1.018-0.176,2.3-0.323,3.448
			c-0.148,1.145-0.449,2.843-1.517,2.805c-1.856-0.067-1.271-1.916-1.346-3.165c1.606-1.166-0.175-2.98,0.815-4.264
			c4.529-15.536,11.013-30.202,19.648-43.896C586.958,178.978,587.933,178.505,588.682,177.89z"/>
		<path fill-rule="evenodd" clip-rule="evenodd" fill="#F0533E" d="M672.909,243.967c1.05-0.686,2.1-1.371,3.149-2.057
			c3.975,10.528,5.066,21.379,3.694,32.518c-0.696,5.65-1.979,11.157-3.826,16.537c-1.98,0.805-2.112-1.178-3.016-2
			c2.329-3.94,3.065-8.235,3.017-12.758c-0.071-6.497-0.171-13,0.033-19.492C676.105,252.126,675.286,247.893,672.909,243.967z"/>
		<path fill-rule="evenodd" clip-rule="evenodd" fill="#F0543E" d="M272.959,90.987c-6.348,5.528-13.877,3.17-20.983,2.901
			c-5.168-0.195-7.598,2.225-8.772,6.769c-0.775,2.999-1.43,5.969-2.748,8.884c-1.469,3.25-2.375,1.378-3.692,0.349
			c1.647-4.841,3.181-9.726,4.979-14.51c1.529-4.072,3.961-5.952,9.027-5.638c5.966,0.37,12.084,2.34,18.101,0.071
			C270.252,90.141,271.893,89.564,272.959,90.987z"/>
		<path fill-rule="evenodd" clip-rule="evenodd" fill="#F04F39" d="M339.07,236.758c-0.563,0.989-0.821,2.584-2.009,2.633
			c-1.489,0.062-1.349-1.712-1.651-2.699c-2.976-9.694,0.568-20.924,8.457-27.508c2.094-1.748,5.035-2.376,6.828-1.512
			c3.329,1.606,6.327,3.907,10.014,4.893c0.372,0.1,0.862,1.229,0.691,1.601c-0.491,1.069-1.696,0.726-2.636,0.887
			c-0.754-0.296-1.536-0.536-2.258-0.896c-9.717-4.85-12.877-3.659-17.164,6.569c-0.571,1.363-0.921,2.82-1.374,4.234
			c-0.848,1.674-0.829,3.349-0.01,5.027C338.33,232.244,338.7,234.501,339.07,236.758z"/>
		<path fill-rule="evenodd" clip-rule="evenodd" fill="#F0533D" d="M144.973,140.978c-0.895,2.715-2.712,4.792-4.367,7.079
			c-4.142,5.726-8.157,11.444-10.279,18.553c-1.715,5.749-3.575,11.942-8.349,16.365c-0.629-0.675-1.733-0.331-2.326-1.086
			c2.618-3.88,4.747-8.046,6.081-12.502c3.364-11.233,9.709-20.659,17.234-29.422C143.814,139.948,144.471,140.308,144.973,140.978z
			"/>
		<path fill-rule="evenodd" clip-rule="evenodd" fill="#F0543F" d="M322.953,325.959c-4.821,7.646-9.844,15.146-12.586,23.931
			c-1.399,4.481-3.584,8.716-5.415,13.062c-1.654-1.668-1.27-3.921-1.705-5.94c5.177-12.356,10.878-24.455,17.72-35.991
			c1.178,0.414,2.055,1.166,2.596,2.3C323.842,324.311,323.776,325.224,322.953,325.959z"/>
		<path fill-rule="evenodd" clip-rule="evenodd" fill="#F1523B" d="M120.981,344.952c-0.331,0.002-0.663,0.002-0.994,0.002
			c-1.97,0.732-2.432-1.883-4.09-1.843c-5.303-4.624-9.278-10.037-11.39-16.917c-2.272-7.396-5.123-14.614-7.72-21.909
			c1.066-1.359,1.89-4.015,3.271-0.036c3.249,9.36,6.556,18.709,10.237,27.904c1.391,3.474,4.52,5.975,7.093,8.726
			C118.624,342.2,119.786,343.592,120.981,344.952z"/>
		<path fill-rule="evenodd" clip-rule="evenodd" fill="#F0523C" d="M97.981,253.967c0.147,5.656-0.971,11.174-1.703,16.745
			c-1.046,7.96,0.7,15.818,1.331,23.719c0.188,2.349,2.043,5.393-1.919,6.622c-2.893-6.319-1.182-13.292-2.815-19.791
			c-0.583-2.801-0.653-5.6,0.034-8.396l-0.044,0.075c1.505-2.258-0.092-4.951,1.021-7.263c-0.713-3.71,0.861-7.156,1.245-10.74
			c0.6-0.731,0.112-2.245,1.654-2.302C97.439,252.85,97.848,253.285,97.981,253.967z"/>
		<path fill-rule="evenodd" clip-rule="evenodd" fill="#F1523C" d="M135.986,341.948c-4.101-3.812-7.135-8.734-9.333-13.499
			c-4.848-10.507-8.554-21.613-8.674-33.487c0.382-0.306,0.783-0.318,1.202-0.084c1.341,1.014-0.168,3.368,1.899,4.043
			c2.728,4.712,1.974,10.219,3.5,15.247c2.388,7.861,6.488,14.944,9.486,22.514C134.774,338.413,137.48,339.415,135.986,341.948z"/>
		<path fill-rule="evenodd" clip-rule="evenodd" fill="#F0513A" d="M376.945,334.956c-0.782-0.382-1.563-0.763-2.346-1.144
			c0.455-1.41,0.594-3.045,1.416-4.191c4.705-6.552,2.969-12.39-1.64-18.047c-4.813-5.907-9.587-11.845-14.378-17.771
			c-0.603-0.597-0.672-1.21-0.05-1.841c1.038,0.61,1.45,2.162,3.002,1.999c7.834,6.321,12.882,14.884,18.26,23.121
			c1.598,2.449,1.248,5.73-0.014,8.579C379.816,328.776,378.365,331.859,376.945,334.956z"/>
		<path fill-rule="evenodd" clip-rule="evenodd" fill="#EF543E" d="M361.881,218.103c0.558-1.04,1.17-2.214,2.586-1.658
			c1.465,0.574,1.348,2.039,1.496,3.366c1.396,12.482,2.769,24.97,5.979,37.16c-1.038,0.461-2.082,0.608-3.138,0.054
			c-3.223-5.609-2.965-11.947-3.778-18.061c1.289-2.401,1.279-2.551-0.248-3.692C362.554,229.76,362.934,223.81,361.881,218.103z"/>
		<path fill-rule="evenodd" clip-rule="evenodd" fill="#F2513A" d="M303.248,357.012c2.406,1.452,1.537,3.844,1.705,5.94
			c-1.779,2.514,0.695,3.133,1.977,3.929c4.566,2.833,9.572,5.052,13.817,8.284c5.277,4.017,12.415,1.431,17.492,5.668
			c0.776,0.648,1.616,1.004,1.72,2.108c-0.824,0.029-1.577,0.201-2.008,1.012c-1.668,0.08-2.93-0.732-4.057-1.844
			c-2.67-4.049-6.77-1.178-10.089-2.085c-6.506-2.755-12.34-6.718-18.331-10.372C299.419,365.96,299.383,365.089,303.248,357.012z"
			/>
		<path fill-rule="evenodd" clip-rule="evenodd" fill="#F0503A" d="M518.924,344.953c-0.233-3.525,0.193-6.868,1.857-10.105
			c2.465-4.798,2.523-10.162,3.164-15.383c0.575-4.69,2.699-9.015,2.543-13.913c2.979,0.623,2.189,2.488,2.606,3.748
			c-0.458,9.457-3.074,18.51-5.18,27.658c-0.811,0.94-1.059,2.196-1.769,3.182c-1.467,1.139,0.04,1.34,0.596,1.843
			c0.071,1.663-0.624,3.011-1.721,4.195C520.732,345.067,520.022,344.676,518.924,344.953z"/>
		<path fill-rule="evenodd" clip-rule="evenodd" fill="#EF4D37" d="M263.954,357.946c-0.024-1.696,1.275-2.581,2.208-3.725
			c2.903-3.562,6.15-6.948,6.215-12.011c0.045-3.528,2.153-6.113,4.485-8.366c1.606-1.552,2.836-3.003,3.214-5.322
			c0.527-3.235,3.708-2.696,5.871-3.575c1.471-0.287,2.83-0.141,3.934,1.007c-2.569,1.067-4.116,3.233-5.722,5.334
			c-1.344-0.237-2.014,0.396-2.174,1.685c-4.114,1.864-5.47,5.526-6.098,9.574c-0.982,6.324-5.157,10.833-8.727,15.697
			C266.126,357.762,264.984,358.455,263.954,357.946z"/>
		<path fill-rule="evenodd" clip-rule="evenodd" fill="#F2553F" d="M514,266.952c0.643-0.328,1.286-0.656,1.929-0.985
			c2.859,5.821,3.675,12.187,5.042,18.423c1.458,6.64-2.644,12.013-3.717,18.061c-0.042,0.241-0.865,0.343-1.325,0.51v-0.001
			c-1.07-1.457-0.461-2.964-0.136-4.463C518.012,287.822,516.612,277.353,514,266.952z"/>
		<path fill-rule="evenodd" clip-rule="evenodd" fill="#F0513A" d="M330.953,199.979c-2.432,1.863-4.8,3.818-7.308,5.573
			c-7.447,5.211-7.469,5.181-5.038,15.83c0.438,1.917,1.021,3.814,1.285,5.754c0.322,2.369-0.727,3.047-2.854,1.844
			c-1.818-4.951-1.647-10.373-3.798-15.292c-0.867-1.982,0.909-3.836,2.33-5.148c4.375-4.034,8.856-7.971,14.423-10.366
			C330.829,198.501,331.551,198.889,330.953,199.979z"/>
		<path fill-rule="evenodd" clip-rule="evenodd" fill="#F0523B" d="M423.937,356.955c-1.311,0-2.62-0.001-3.931-0.001
			c-0.229-0.186-0.286-0.413-0.173-0.685c-1.055-6.487-2.715-12.908-2.339-19.555c0.075-1.33-0.788-3.861,2.343-2.723
			c3.806,4.066,6.354,9.005,9.311,13.644c1.351,2.117,2.811,4.004,4.784,5.517c0.593,3.238-1.292,2.366-2.991,1.803
			c-3.102-4.201-6.202-8.401-9.983-13.523C420.55,347.696,421.54,352.455,423.937,356.955z"/>
		<path fill-rule="evenodd" clip-rule="evenodd" fill="#F04F39" d="M366.913,279.144c-0.657,0.274-1.313,0.55-1.97,0.824
			c-8.601-7.99-15.907-17.034-21.868-27.14c-1.545-2.619-3.355-5.07-4.328-8.071c-0.666-2.053-0.387-3.135,1.494-3.925
			C346.196,255.646,355.874,267.869,366.913,279.144z"/>
		<path fill-rule="evenodd" clip-rule="evenodd" fill="#EF4D36" d="M518.924,344.953c1.343-0.693,2.092-0.373,2.098,1.225
			c-4.261,8.738-10.764,15.63-18.03,21.892c-4.311,2.635-7.018,7.037-11.032,9.997c-0.286,0.994-1.119,1.056-1.94,1.136
			c-0.029-1.083-0.058-2.164-0.087-3.247c9.36-6.529,16.853-14.94,23.876-23.806C515.633,349.845,517.225,347.357,518.924,344.953z"
			/>
		<path fill-rule="evenodd" clip-rule="evenodd" fill="#F1553E" d="M172.741,116.878c7.514,0,15.028,0,22.542,0
			c-1.393,2.579-3.243,2.089-4.901,2.077c-8.616-0.066-16.888,0.838-25.371,3.288c-4.676,1.351-6.389,4.055-9.04,6.738
			c-1.282-1.098-1.163-2.566-1.063-4.029C159.416,119.086,166.363,118.611,172.741,116.878z"/>
		<path fill-rule="evenodd" clip-rule="evenodd" fill="#EF4F39" d="M424.005,231.972c2.006,0.12,1.938,1.58,1.938,2.998
			c-1.147,3.653,0.277,6.33,3.089,8.614c6.586,5.351,12.924,11.05,20.901,14.375c0.068,0.206,0.137,0.412,0.207,0.619
			c-0.345,1.122-1.09,1.862-2.176,2.276c-7.298-4.626-14.384-9.517-20.714-15.459C421.063,239.59,420.995,239.663,424.005,231.972z"
			/>
		<path fill-rule="evenodd" clip-rule="evenodd" fill="#F0523C" d="M178.997,360.933c-12.618-0.53-24.29-3.991-34.641-11.376
			c-1.313-0.937-2.266-2.378-3.385-3.586c0.109-0.737,0.516-1.226,1.222-1.463c8.85,6.727,18.478,11.594,29.78,12.457
			c2.101,1.736,4.786,1.214,7.172,1.854C179.614,359.561,179.497,360.26,178.997,360.933z"/>
		<path fill-rule="evenodd" clip-rule="evenodd" fill="#F1543E" d="M559.924,271.965c-0.906,0.559-1.463,2.153-2.949,0.998
			c-1.616-3.592,0.863-6.848,0.846-10.31c-0.332-4.389,0.639-8.584,1.906-12.734c1.119-1.456,1.562-3.165,1.845-4.934
			c0.379-1.97,1.402-3.879,0.557-5.964c-0.228-0.895-0.242-1.732,0.649-2.314c1.226,0.271,1.922,1.044,2.147,2.263
			c-1.435,7.388-1.203,15.092-4.192,22.185C559.252,264.67,560.191,268.362,559.924,271.965z"/>
		<path fill-rule="evenodd" clip-rule="evenodd" fill="#F1543E" d="M111.981,199.977c-0.28,6.166-1.915,11.687-5.396,17.051
			c-1.59,2.45-3.198,6.034-2.682,9.737c0.251,1.805,0.548,3.86-0.576,5.747c-2.315-0.964-0.486-3.72-2.42-4.578
			c0.041-0.327,0.081-0.653,0.121-0.98c1.134-1.973-0.138-4.275,0.861-6.266c2.039-4.906,4.077-9.811,6.116-14.717
			c1.269-1.195-0.091-2.951,0.896-4.206c-0.094-0.293-0.042-0.559,0.155-0.795C109.87,200.166,110.663,199.298,111.981,199.977z"/>
		<path fill-rule="evenodd" clip-rule="evenodd" fill="#F0523B" d="M383.927,174.967c3.303,2.409,0.581,3.053-1.139,2.91
			c-6.409-0.539-7.407,4.323-8.752,8.589c-0.739,2.345-1.084,4.855-2.413,6.944c-1.214,1.91-2.326,1.644-2.77-0.646
			c1.165-3.772,2.238-7.575,3.515-11.309C374.845,174.215,375.853,173.695,383.927,174.967z"/>
		<path fill-rule="evenodd" clip-rule="evenodd" fill="#F1523C" d="M623.913,177.975c-8.163,0.385-16.363-0.763-24.517,0.886
			c-2.179,0.441-5.059,1.053-6.5-1.955c4.575-1.513,9.392-1.147,14.074-1.818c2.602,0.465,5.206,1.025,7.754-0.233
			c3.527-1.099,7.059-1.745,10.604-0.073C624.986,175.903,624.632,177.02,623.913,177.975z"/>
		<path fill-rule="evenodd" clip-rule="evenodd" fill="#F0543E" d="M430.94,354.955c1.35-0.017,2.807,0.146,2.991-1.803
			c7.047,1.044,13.527,5.167,21.007,3.867c0.371,2.63,2.45,1.736,3.997,1.937c-5.406,2.159-10.639,3.685-16.158-0.237
			c-1.787-1.271-4.717-0.873-7.082-1.419C433.962,356.897,432.126,356.541,430.94,354.955z"/>
		<path fill-rule="evenodd" clip-rule="evenodd" fill="#EF4F39" d="M474.929,240.965c1.059,0.042,2.194-0.186,2.966,0.854
			c-8.269,2.893-14.064,9.394-20.922,14.345c-1.317,0.951-2.28,2.44-4.081,2.643c-0.956-0.374-2.206,0.296-2.949-0.832l-0.01-0.016
			c6.565-5.131,12.579-10.999,19.998-14.992c0.73-1.876,2.803-1.065,4.003-1.999C474.266,240.967,474.597,240.966,474.929,240.965z"
			/>
		<path fill-rule="evenodd" clip-rule="evenodd" fill="#F3523B" d="M499.933,161.978c-3.03,2.572-6.02-0.029-8.933-0.331
			c-2.967-0.309-5.779-1.021-8.723,0.055c-2.67,0.977-5.186-0.379-7.763-0.759c-0.811-0.119-1.993-0.422-1.737-1.244
			c0.229-0.735,1.418-1.17,2.185-1.737c3.162,0.765,6.118,0.961,9.517,0.128c4.798-1.175,9.684,0.805,14.458,1.933
			C499.505,160.554,500.577,160.828,499.933,161.978z"/>
		<path fill-rule="evenodd" clip-rule="evenodd" fill="#F05039" d="M167.99,379.822c0.66-0.623,1.32-1.247,1.98-1.87
			c9.24-0.481,17.011,5.396,26,5.998c-1.748-0.114-3.036,0.374-3.146,2.403C184.456,384.521,176.078,382.723,167.99,379.822z"/>
		<path fill-rule="evenodd" clip-rule="evenodd" fill="#F14B34" d="M368.805,257.023c1.036-0.595,2.081-0.74,3.139-0.054
			c0.805,3.889,4.279,6.045,6.455,8.915c1.593,2.101,3.543-1.988,5.547-2.923c1.42-3.224-0.368-6.768,0.996-9.998
			c0.001-0.332,0.002-0.665,0.004-0.997c0.935,0.031,1.721,0.317,2.141,1.239c0.457,2.962-0.502,5.845-0.153,8.928
			c0.393,3.466-2.838,5.505-6.027,6.746c-1.517-0.393-2.813,0.033-3.948,1.062C375.547,264.811,370.818,261.774,368.805,257.023z"/>
		<path fill-rule="evenodd" clip-rule="evenodd" fill="#F25039" d="M276.882,122.966c-1.689-1.784-0.608-3.999-0.933-5.994
			c-0.35-2.629,1.568-4.282,2.803-6.153c2.803-4.25,4.906-8.576,3.205-13.831c1.007-0.822,2.019-0.808,3.037-0.02l0.013-0.047
			c-0.064,3.175,0.542,6.344,0.109,9.524C282.234,111.884,277.468,116.383,276.882,122.966z"/>
		<path fill-rule="evenodd" clip-rule="evenodd" fill="#F34C34" d="M623.913,177.975c-0.978-1.707-0.948-2.966,1.415-3.194
			c6.224,5.652,6.194,8.89-0.269,13.517c-2.341,1.676-4.865,3.095-7.307,4.631c-1.588-1.716-0.482-2.701,1.044-3.347
			c2.213-0.937,3.729-2.718,5.42-4.261C626.945,182.833,628.009,180.255,623.913,177.975z"/>
		<path fill-rule="evenodd" clip-rule="evenodd" fill="#EF533E" d="M233.019,201.975c1.687-0.304,3.688-0.773,2.728,2.093
			c-1.191,3.552-1.982,6.51,3.437,6.853c1.188,0.075,2.068,2.109,3.776,2.05c0.273,0.4,0.314,0.829,0.158,1.283
			c-0.595,0.795-1.345,1.229-2.371,1.032c-1.805-0.763-3.552-1.738-5.604-1.552c-2.29,2.078,0.424,5.717-2.384,7.609
			C230.571,214.856,231.252,208.407,233.019,201.975z"/>
		<path fill-rule="evenodd" clip-rule="evenodd" fill="#F3523C" d="M326.027,354.807c-0.407,0.896-1.188,1.117-2.075,1.147
			c-1.593-6.569-2.288-13.045,1.994-18.999c0.905,0.4,1.232,1.35,1.887,1.987c0.58,2.184-0.923,3.996-1.083,6.047
			c-0.75,2.069,0.113,4.301-0.643,6.372C326.081,352.509,326.054,353.658,326.027,354.807z"/>
		<path fill-rule="evenodd" clip-rule="evenodd" fill="#F44C33" d="M289.881,325.953c-1.363-0.131-2.91,0.453-3.934-1.006
			c-0.736-1.819-0.119-4.484-3.076-4.911l0.018,0.023c0.024-0.367,0.047-0.733,0.071-1.101c0.93-2.791,4.118-4.822,2.819-8.363
			c0.536-1.204,1.763-3.202,2.494-2.346c1.556,1.822,3.488,4.131,1.792,7.03c-0.736,0.259-0.735,0.941-0.879,1.541
			c-0.121,2.469,0.086,4.887,1.019,7.203C290.096,324.667,289.988,325.31,289.881,325.953z"/>
		<path fill-rule="evenodd" clip-rule="evenodd" fill="#ED4F39" d="M111.981,199.977c-0.976,0.331-1.951,0.662-2.926,0.994
			c-0.492-1.566,0.96-2.613,1.074-4.017c0.887-1.328,1.449-2.784,1.709-4.358c0.643-5,5.37-7.02,7.813-10.707
			c1-0.119,2.343-0.977,2.325,1.086C116.854,187.59,114.032,193.556,111.981,199.977z"/>
		<path fill-rule="evenodd" clip-rule="evenodd" fill="#F25640" d="M97.981,253.967c-0.333-0.333-0.667-0.666-1-0.999
			c-0.858-1.747-0.603-3.513-0.093-5.284c0.774-4.252,1.549-8.506,2.325-12.758c2.742,1.09,4.164,4.908,1.964,6.433
			c-2.278,1.578-1.786,2.821-1.402,4.857C100.288,248.932,100.474,251.83,97.981,253.967z"/>
		<path fill-rule="evenodd" clip-rule="evenodd" fill="#F24932" d="M154.908,124.951c1.523,1.035,0.932,2.627,1.063,4.029
			c-1.238,0.711-2.891,0.982-3.042,2.853c0.534,0.934,0.002,1.161-0.802,1.209c-1.347,3.58-5.494,4.636-7.154,7.936
			c-0.833-0.012-1.571-0.213-2.006-1.013C146.947,134.96,150.928,129.955,154.908,124.951z"/>
		<path fill-rule="evenodd" clip-rule="evenodd" fill="#F14E37" d="M126.845,215.937c-1.055-0.763-0.831-1.903-0.871-2.965
			c3.309-2.637,5.742-5.627,5.123-10.313c-0.225-1.701,1.19-2.553,2.869-2.693c0.575,0.105,0.909,0.455,1.032,1.019
			c-0.222,0.436-0.712,0.936-0.625,1.296C136.033,209.151,131.35,212.49,126.845,215.937z"/>
		<path fill-rule="evenodd" clip-rule="evenodd" fill="#F74D35" d="M327.834,338.943c-1.281-0.042-1.854-0.759-1.887-1.987
			c-0.003-3.999-0.006-7.996-0.009-11.994c-1.024-0.626-1.581-1.949-2.989-2.001c-1.271-0.022-1.929-0.672-1.98-1.94
			c0.601-1.107,1.202-2.216,1.803-3.324c1.068-0.037,2.169-0.476,3.173,0.264c2.097,1.21,0.278,3.906,1.996,5.259
			c2.05,3.992,0.232,8.021,0.116,12.034C327.982,336.483,327.908,337.713,327.834,338.943z"/>
		<path fill-rule="evenodd" clip-rule="evenodd" fill="#F14C35" d="M284.994,96.968c-1.012,0.007-2.024,0.013-3.037,0.02
			c-1.538-4.191-3.448-7.825-8.998-6c-1.438-0.129-3.081,0.453-4.088-1.174C275.592,84.551,281.044,86.971,284.994,96.968z"/>
		<path fill-rule="evenodd" clip-rule="evenodd" fill="#EF422A" d="M232.757,221.342c0.07-2.798-0.105-5.632,0.285-8.386
			c0.332-2.343,1.269-0.986,1.921,0.016c0.583,3.991,3.638,6.745,5.14,10.276c-0.217,4.838-0.217,4.838-3.138,3.728
			c0.449-1.813-0.784-1.89-2.023-1.961C233.545,224.188,232.831,222.957,232.757,221.342z"/>
		<path fill-rule="evenodd" clip-rule="evenodd" fill="#F3533D" d="M450.937,161.979c-2.333,0-4.667,0-7,0
			c-0.616-1.127,0.375-1.427,0.988-1.92c3.951-0.441,7.559-2.672,11.677-2.241c1.014,0.317,2.674-0.291,2.883,1.164
			c0.232,1.624-1.319,1.345-2.412,1.549C455.009,160.918,452.979,161.485,450.937,161.979z"/>
		<path fill-rule="evenodd" clip-rule="evenodd" fill="#F15741" d="M499.933,161.978c-0.332-0.651-0.664-1.304-0.996-1.956
			c5.442,0.961,10.837,2.108,16.016,4.101c-0.753,3.209-3.698,2.935-5.072,1.844C506.855,163.565,503.116,163.578,499.933,161.978z"
			/>
		<path fill-rule="evenodd" clip-rule="evenodd" fill="#EF5742" d="M557.82,262.653c0.759,3.522-1.443,6.801-0.847,10.31
			c1.392,6.524-0.39,12.729-1.908,18.96C555.168,282.089,555.178,272.248,557.82,262.653z"/>
		<path fill-rule="evenodd" clip-rule="evenodd" fill="#F05039" d="M196.969,386.92c0.365-2.482,2.355-2.197,3.847-1.877
			c4.909,1.052,9.776,1.398,14.72,0.311c1.106-0.242,1.263,0.771,1.43,1.587C210.3,387.25,203.632,388.895,196.969,386.92z"/>
		<path fill-rule="evenodd" clip-rule="evenodd" fill="#EF4D37" d="M285.778,310.596c2.865,3.668,2.414,5.006-2.819,8.363
			c-1.331-0.333-2.662-0.666-3.993-0.999c-0.311-0.219-0.415-0.438-0.313-0.658c0.103-0.22,0.205-0.33,0.309-0.33
			C281.234,314.846,283.506,312.721,285.778,310.596z"/>
		<path fill-rule="evenodd" clip-rule="evenodd" fill="#F1533D" d="M419.837,333.991c-3.817,2.346-1.975,5.895-1.339,8.694
			c1.027,4.521,1.738,8.969,1.335,13.583c-3.358-6.645-3.213-13.752-2.781-20.905C417.184,333.172,417.666,331.927,419.837,333.991z
			"/>
		<path fill-rule="evenodd" clip-rule="evenodd" fill="#F04E37" d="M672.911,288.966c1.006,0.667,2.011,1.333,3.016,2
			c-0.035,3.627-1.65,6.776-3.032,9.996c-2.772-0.556-2.234-2.489-1.369-4.045C672.94,294.369,672.98,291.706,672.911,288.966z"/>
		<path fill-rule="evenodd" clip-rule="evenodd" fill="#F44A32" d="M404.067,177.934c-1.039,0.014-2.079,0.026-3.119,0.039
			c0.008-1.451,0.016-2.903-2.004-3c-4.214-1.432-8.673,0.373-12.894-0.974l-0.446-0.202c0.75-0.623,1.5-1.247,2.25-1.87
			c4.438,0.402,8.873-0.504,13.311-0.038C402.859,173.555,402.905,176.013,404.067,177.934z"/>
		<path fill-rule="evenodd" clip-rule="evenodd" fill="#F24B34" d="M278.962,316.972c0,0.329,0.001,0.659,0.003,0.988
			c-0.304,1.086-0.933,2.196-0.852,3.251c0.275,3.609-2.222,2.681-4.156,2.746c-1.306,0.503-2.587,1.774-3.961,0.125
			C272.985,321.712,275.974,319.342,278.962,316.972z"/>
		<path fill-rule="evenodd" clip-rule="evenodd" fill="#F54E37" d="M240.968,214.976c0.663-0.338,1.326-0.677,1.989-1.016
			c1.417-1.553,2.333-3.991,5.216-2.959c-0.399,4.434-4.886,5.856-6.773,9.195c-0.876,0.568-1.391,0.002-1.895-0.602
			c-0.342-0.716-0.403-1.464-0.261-2.237C239.517,216.347,240.012,215.494,240.968,214.976z"/>
		<path fill-rule="evenodd" clip-rule="evenodd" fill="#191919" d="M366.771,549.822c1.365,0.14,1.864,0.807,2.103,1.607
			c0.202,0.679-4.116,6.384-4.682,6.31c-1.639-0.216-1.508-1.567-1.573-2.658C362.433,551.892,365.971,551.88,366.771,549.822z"/>
		<path fill-rule="evenodd" clip-rule="evenodd" fill="#EF5742" d="M179.019,358.998c-2.417-0.439-5.405,1.098-7.045-2.034
			c8.958,1.583,17.988,1.107,27.007,0.931c-0.431,0.848-1.208,1.044-2.063,1.092C190.952,360.595,184.985,360.383,179.019,358.998z"
			/>
		<path fill-rule="evenodd" clip-rule="evenodd" fill="#FC4125" d="M246.968,204.978c2-2.627,0.564-5.655,0.985-8.468
			c0.277-1.854-0.71-3.938,1.009-5.528c0.524,5.653,1.558,11.312-0.18,16.942c-2.092-0.068-2.711-1.042-1.813-2.948L246.968,204.978
			z"/>
		<path fill-rule="evenodd" clip-rule="evenodd" fill="#EF5742" d="M240.968,214.976c-0.022,0.82-0.193,1.566-0.988,2.006
			c-0.749-0.122-1.812-1.179-2.114-0.461c-0.628,1.496,1.045,1.64,1.937,2.188c0.532,0.495,1.064,0.99,1.597,1.485
			c-0.405,1.029-0.196,2.319-1.296,3.052c-0.082-0.318-0.13-0.902-0.25-0.917c-6.16-0.769-4.756-5.465-4.89-9.358
			C237.445,212.203,239.537,212.6,240.968,214.976z"/>
		<path fill-rule="evenodd" clip-rule="evenodd" fill="#EF4D37" d="M259.956,367.966c-0.384-1.042-0.561-2.241-1.2-3.092
			c-1.067-1.42-2.902-2.856-0.559-4.295c2.432-1.492,3.442,0.323,3.841,2.53c-0.502,1.8-1.004,3.601-1.522,5.396
			c-0.001,0.004-0.28-0.021-0.356-0.103C260.055,368.292,260.021,368.115,259.956,367.966z"/>
		<path fill-rule="evenodd" clip-rule="evenodd" fill="#F7543D" d="M209.759,113.893c1.456,0.396,3.371-0.597,4.681,2.007
			c-4.789-0.353-9.336,1.554-13.428-1.733C203.928,114.075,206.843,113.983,209.759,113.893z"/>
		<path fill-rule="evenodd" clip-rule="evenodd" fill="#F3482F" d="M134.999,200.983c-0.344-0.34-0.688-0.679-1.032-1.019
			c1.668-1.999,3.335-3.997,5.003-5.996c1.127,0.035,1.891,0.489,1.983,1.719C139.71,198.287,138.023,200.388,134.999,200.983z"/>
		<path fill-rule="evenodd" clip-rule="evenodd" fill="#EF4830" d="M142.193,344.507c-0.407,0.487-0.814,0.975-1.222,1.463
			c-2.786,0.052-2.201-4.073-4.985-4.022c0.137-2.039-2.356-3.118-1.92-5.266C137.666,338.366,139.273,342.118,142.193,344.507z"/>
		<path fill-rule="evenodd" clip-rule="evenodd" fill="#EF5742" d="M340.895,356.199c-2.816,2.128-5.896,3.25-9.504,2.777
			c-1.282-0.168-2.23-0.454-2.439-1.872C332.933,356.803,336.914,356.501,340.895,356.199z"/>
		<path fill-rule="evenodd" clip-rule="evenodd" fill="#F1503A" d="M246.969,204.976c-0.002,1.355,0.583,2.351,1.813,2.948
			c0.141,1.094,0.094,2.15-0.609,3.077c-1.739,0.986-3.477,1.973-5.216,2.959c0.003-0.33,0.004-0.66,0.002-0.99
			C245.18,210.749,245.032,207.339,246.969,204.976z"/>
		<path fill-rule="evenodd" clip-rule="evenodd" fill="#F25039" d="M401.165,171.889c-4.435,0.663-8.867,2.316-13.311,0.038
			C392.289,171.156,396.724,170.628,401.165,171.889z"/>
		<path fill-rule="evenodd" clip-rule="evenodd" fill="#F34228" d="M491.959,378.065c3.365-3.677,5.829-8.347,11.032-9.997
			C499.49,371.597,497.171,376.426,491.959,378.065z"/>
		<path fill-rule="evenodd" clip-rule="evenodd" fill="#F74E36" d="M402.922,347.955c-3.744-2.108-2.209-4.913-0.518-7.163
			c0.907-1.207,1.332,0.48,1.604,1.315C404.206,344.161,404.226,346.18,402.922,347.955z"/>
		<path fill-rule="evenodd" clip-rule="evenodd" fill="#F2553E" d="M564.925,238.97c-1.059-0.428-1.737-1.219-2.147-2.263
			c0.471-1.894,0.942-3.79,1.413-5.684C566.953,233.439,566.34,236.167,564.925,238.97z"/>
		<path fill-rule="evenodd" clip-rule="evenodd" fill="#E4E0E1" d="M289.079,315.964c0.328-0.229,0.657-0.457,0.985-0.686
			c0.07,1.226,0.859,1.637,1.942,1.717c1.27,1.986,1.293,3.963-0.045,5.929l-0.426,0.049l-0.427-0.041
			C286.492,321.756,288.71,318.591,289.079,315.964z"/>
		<path fill-rule="evenodd" clip-rule="evenodd" fill="#F65139" d="M323.805,380.024c3.708-0.975,7.67-3.179,10.089,2.085
			C330.996,379.161,326.663,383.164,323.805,380.024z"/>
		<path fill-rule="evenodd" clip-rule="evenodd" fill="#888888" d="M446.852,561.881c0.364,0.303,0.688,0.688,1.101,0.893
			c1.129,0.557,3.332-0.391,3.207,1.829c-0.09,1.59-1.643,2.179-3.153,2.384C446.723,565.487,444.862,564.12,446.852,561.881z"/>
		<path fill-rule="evenodd" clip-rule="evenodd" fill="#F3523C" d="M328.057,335.253c-0.039-4.011-0.077-8.023-0.116-12.035
			C331.518,327.196,328.86,331.234,328.057,335.253z"/>
		<path fill-rule="evenodd" clip-rule="evenodd" fill="#F15944" d="M364.462,195.883c-2.126,0.176-4.321-0.185-6.318,0.967
			c-0.839,0.483-1.885,1.075-2.615-0.112c-0.97-1.577,1.116-1.726,1.414-2.736C359.646,193.838,361.975,195.181,364.462,195.883z"/>
		<path fill-rule="evenodd" clip-rule="evenodd" fill="#F34026" d="M151.79,177.314c1.263-1.768,2.41-3.763,5.154-2.642
			C155.14,175.384,156.681,182.624,151.79,177.314z"/>
		<path fill-rule="evenodd" clip-rule="evenodd" fill="#F7391E" d="M325.945,317.96c-1.103,0.451-2.251,1.47-3.173-0.264
			c0.069-1.832,0.498-4.495,2.182-4.282C327.228,313.703,326.047,316.283,325.945,317.96z"/>
		<path fill-rule="evenodd" clip-rule="evenodd" fill="#EF432B" d="M121.079,298.921c-4.244,0.577-1.083-2.817-2.122-3.958
			c-0.816-1.159-0.966-2.249,0.328-3.192c0.97-0.196,1.236,0.546,1.578,1.186C120.935,294.944,121.007,296.933,121.079,298.921z"/>
		<path fill-rule="evenodd" clip-rule="evenodd" fill="#FCCCCB" d="M251.155,368.993c1.097-2.296-1.304-5.375,1.625-7.262
			c0.923,0.039,1.685,0.364,2.157,1.208c-0.679,1.283-2.013,2.241-1.936,3.899C252.385,367.557,251.77,368.275,251.155,368.993z"/>
		<path fill-rule="evenodd" clip-rule="evenodd" fill="#F4482F" d="M449.942,257.975c1.052,0.031,2.18-0.202,2.949,0.832
			c-1.558,0.889-1.735,5.096-4.928,2.048C447.815,259.338,449.356,258.984,449.942,257.975z"/>
		<path fill-rule="evenodd" clip-rule="evenodd" fill="#F25A45" d="M402.938,335.957c0.138-1.451-0.458-3.128,1.253-4.098
			c1.316,2.654,2.005,5.373,0.854,8.282C405.271,338.279,404.151,337.094,402.938,335.957z"/>
		<path fill-rule="evenodd" clip-rule="evenodd" fill="#F34A33" d="M330.953,199.979c-0.32-0.601-0.64-1.203-0.96-1.804
			c1.952-2.239,3.956-0.829,5.95-0.084c-0.001,0.295-0.001,0.589,0,0.883c-0.106,0.557-0.437,0.888-0.992,0.998
			C333.619,199.974,332.286,199.976,330.953,199.979z"/>
		<path fill-rule="evenodd" clip-rule="evenodd" fill="#EF5742" d="M285.116,106.445c-0.36-3.171-1.89-6.328-0.109-9.524
			C286.243,100.082,286.679,103.252,285.116,106.445z"/>
		<path fill-rule="evenodd" clip-rule="evenodd" fill="#F27F6E" d="M291.961,322.925c0.015-1.976,0.03-3.953,0.045-5.929
			C295.075,319.181,295.063,320.825,291.961,322.925z"/>
		<path fill-rule="evenodd" clip-rule="evenodd" fill="#ED361B" d="M234.942,225.015c1.161-1.285,2.639-1.627,3.617-0.162
			c0.876,1.312-0.321,1.949-1.594,2.123C235.975,226.648,235.238,226.059,234.942,225.015z"/>
		<path fill-rule="evenodd" clip-rule="evenodd" fill="#F54930" d="M364.779,235.271c0.354-0.553,0.46-2.238,1.257-1.268
			c1.363,1.661,2.068,3.875-1.009,4.96C364.944,237.732,364.862,236.5,364.779,235.271z"/>
		<path fill-rule="evenodd" clip-rule="evenodd" fill="#EF5742" d="M437.995,163.889c-0.7,2.631,1.344,5.762-1.46,8.01
			c1.224-3.187-0.609-6.817,1.438-9.883c0.126,0.135,0.251,0.27,0.377,0.404C438.541,162.983,438.492,163.49,437.995,163.889z"/>
		<path fill-rule="evenodd" clip-rule="evenodd" fill="#121212" d="M368.304,539.907c-1.33-0.063-1.809-0.828-1.487-1.322
			c0.777-1.191,1.467-2.774,3.271-2.633c0.821,0.064,0.886,0.864,0.564,1.524C370.067,538.674,369.484,539.918,368.304,539.907z"/>
		<path fill-rule="evenodd" clip-rule="evenodd" fill="#F2371B" d="M614.725,174.854c0.343,0.317,1.435,0.924,0.87,0.93
			c-2.87,0.029-5.902,1.159-8.624-0.696C609.556,175.009,612.141,174.931,614.725,174.854z"/>
		<path fill-rule="evenodd" clip-rule="evenodd" fill="#F16A58" d="M289.079,315.964c-0.179,2.571-1.258,5.404,2.028,6.969
			c-0.301,0.363-0.602,0.728-0.903,1.091C286.945,321.74,287.246,318.959,289.079,315.964z"/>
		<path fill-rule="evenodd" clip-rule="evenodd" fill="#F1523C" d="M120.863,292.957c-0.301-0.324-0.603-0.649-0.904-0.975
			c-2.612-1.634-2.374-3.732-0.98-6.019c0.318,0,0.637,0,0.955,0C120.352,288.28,121.348,290.52,120.863,292.957z"/>
		<path fill-rule="evenodd" clip-rule="evenodd" fill="#F5462D" d="M436.103,173.018c1.895,1.786,3.742,3.567-0.37,4.898
			C435.855,176.283,435.979,174.651,436.103,173.018z"/>
		<path fill-rule="evenodd" clip-rule="evenodd" fill="#EF4D36" d="M522.742,341.982c-1.121,0.48-2.422,1.536-2.759-0.753
			c-0.257-1.747,0.656-1.838,1.954-1.288c0.37-0.338,0.729-0.311,1.078,0.035C522.925,340.645,522.833,341.313,522.742,341.982z"/>
		<path fill-rule="evenodd" clip-rule="evenodd" fill="#EF5742" d="M561.923,244.968c-0.002,1.974-0.299,3.818-2.196,4.951
			c0.277-2.842,0.938-5.585,2.075-8.208C562.689,242.765,562.583,243.856,561.923,244.968z"/>
		<path fill-rule="evenodd" clip-rule="evenodd" fill="#E4341C" d="M251.966,189.913c-0.106-3.998,2.911-1.021,4.208-1.883
			C255.807,190.968,253.721,190.071,251.966,189.913z"/>
		<path fill-rule="evenodd" clip-rule="evenodd" fill="#EF5742" d="M359.947,291.962c0.017,0.614,0.033,1.228,0.05,1.841
			c-1.808-1.252-3.4-2.704-4.34-4.749C357.086,290.024,358.517,290.993,359.947,291.962z"/>
		<path fill-rule="evenodd" clip-rule="evenodd" fill="#F65740" d="M92.909,272.866c-0.011,2.798-0.022,5.596-0.034,8.396
			C91.527,278.458,91.829,275.661,92.909,272.866z"/>
		<path fill-rule="evenodd" clip-rule="evenodd" fill="#EF5742" d="M444.925,160.058c-0.329,0.639-0.659,1.28-0.988,1.92
			c-1.036,0.021-2.07,0.044-3.105,0.065c-0.81,0.681-1.666,0.845-2.593,0.237l-0.266-0.266
			C440.037,160.464,442.587,160.636,444.925,160.058z"/>
		<path fill-rule="evenodd" clip-rule="evenodd" fill="#EF5742" d="M96.889,247.685c0.031,1.762,0.062,3.522,0.093,5.284
			c-0.617,0.657-1.234,1.314-1.851,1.97C95.228,252.403,95.917,250.01,96.889,247.685z"/>
		<path fill-rule="evenodd" clip-rule="evenodd" fill="#F83114" d="M531.123,177.082c-0.787-0.365-2.217,0.454-2.381-0.785
			c-0.16-1.199,1.154-1.721,2.091-2.286C531.307,175,533.567,175.819,531.123,177.082z"/>
		<path fill-rule="evenodd" clip-rule="evenodd" fill="#F5381D" d="M376.958,269.942c0.683-2.71,2.182-2.382,3.949-1.062
			C379.724,269.732,378.579,270.721,376.958,269.942z"/>
		<path fill-rule="evenodd" clip-rule="evenodd" fill="#F7462B" d="M566.818,223.651c0.278,0.949,0.558,1.896,0.832,2.846
			c0.486,1.675,0.014,2.24-1.648,1.418c-0.067-0.388-0.136-0.775-0.204-1.163C565.985,225.669,565.563,224.384,566.818,223.651z"/>
		<path fill-rule="evenodd" clip-rule="evenodd" fill="#F65740" d="M93.885,265.679c-0.229,2.436,1.083,5.089-1.02,7.263
			C92.978,270.488,92.611,267.968,93.885,265.679z"/>
		<path fill-rule="evenodd" clip-rule="evenodd" fill="#F73F24" d="M115.897,343.11c2.215-1.276,2.488,1.757,4.09,1.843
			c-0.38,0.357-0.761,0.715-1.141,1.072C117.862,345.054,116.88,344.083,115.897,343.11z"/>
		<path fill-rule="evenodd" clip-rule="evenodd" fill="#F34026" d="M281.984,332.973c-0.993-0.735-0.977-1.528-0.069-2.293
			c1.005-0.847,1.695-0.331,2.244,0.608C283.735,332.238,283.085,332.896,281.984,332.973z"/>
		<path fill-rule="evenodd" clip-rule="evenodd" fill="#F53C24" d="M263.954,357.946c1.118-0.43,2.296-1.507,3.206,0.299
			c0.053,0.284-0.033,0.517-0.258,0.698C265.991,358.397,264.336,360.052,263.954,357.946z"/>
		<path fill-rule="evenodd" clip-rule="evenodd" fill="#F73A1F" d="M349.197,385.101c-0.776-0.173-1.553-0.347-2.957-0.66
			c2.394-0.595,4.105-0.998,5.662,0.381C351,384.914,350.099,385.008,349.197,385.101z"/>
		<path fill-rule="evenodd" clip-rule="evenodd" fill="#EF5742" d="M515.793,298.497c0.046,1.488,0.091,2.975,0.136,4.463
			c-0.732-0.025-1.464-0.052-2.196-0.077C514.419,301.421,515.106,299.959,515.793,298.497z"/>
		<path fill-rule="evenodd" clip-rule="evenodd" fill="#F2553E" d="M561.923,244.968c-0.04-1.086-0.081-2.171-0.121-3.257
			c0.108-0.897,0.218-1.794,0.326-2.69C563.301,241.046,563.479,243.037,561.923,244.968z"/>
		<path fill-rule="evenodd" clip-rule="evenodd" fill="#747474" d="M254.922,448.966l-0.471-0.015l-0.471,0.006
			c-0.006-0.672-0.012-1.343-0.017-2.015c0.344,0.007,0.689,0.014,1.034,0.021c1.214-0.684,2.265-0.544,2.235,1.009
			C257.201,449.497,256.116,449.599,254.922,448.966z"/>
		<path fill-rule="evenodd" clip-rule="evenodd" fill="#F7634E" d="M326.107,351.361c-0.017-2.147-0.853-4.377,0.643-6.372
			C326.935,347.154,326.985,349.304,326.107,351.361z"/>
		<path fill-rule="evenodd" clip-rule="evenodd" fill="#EF5742" d="M101.889,220.688c-0.161,2.106,0.871,4.376-0.861,6.266
			C100.871,224.805,100.993,222.693,101.889,220.688z"/>
		<path fill-rule="evenodd" clip-rule="evenodd" fill="#F0543E" d="M460.937,354.947c-1.085,2.415-3.21,2.012-5.219,1.928
			C457.457,356.231,459.196,355.589,460.937,354.947z"/>
		<path fill-rule="evenodd" clip-rule="evenodd" fill="#575757" d="M343.038,655.844c-0.432,0.426-0.863,0.852-1.295,1.278
			c-0.63-0.689-1.26-1.379-1.89-2.067c-0.386-0.506-0.337-0.964,0.147-1.376C341.239,654.084,342.475,654.491,343.038,655.844z"/>
		<path fill-rule="evenodd" clip-rule="evenodd" fill="#EF5742" d="M108.901,201.766c-0.739,1.309,2.119,3.382-0.896,4.206
			C108.046,204.514,107.651,202.965,108.901,201.766z"/>
		<path fill-rule="evenodd" clip-rule="evenodd" fill="#CC4E3F" d="M337.959,229.987c-1.498-1.679-1.493-3.354,0.01-5.027
			C337.965,226.636,337.962,228.311,337.959,229.987z"/>
		<path fill-rule="evenodd" clip-rule="evenodd" fill="#EF5742" d="M111.839,192.596c0.287,1.789,0.14,3.407-1.709,4.358
			C110.189,195.301,110.956,193.926,111.839,192.596z"/>
		<path fill-rule="evenodd" clip-rule="evenodd" fill="#818181" d="M340,653.679c-0.049,0.459-0.099,0.917-0.147,1.376
			c-1.847-1.321-0.151-3.025-0.33-4.535C339.682,651.571,339.841,652.625,340,653.679z"/>
		<path fill-rule="evenodd" clip-rule="evenodd" fill="#EF5742" d="M523.016,339.977c-0.359-0.012-0.719-0.023-1.078-0.035
			c-0.004-1.435,0.662-2.425,1.978-2.984C524.128,338.117,523.849,339.129,523.016,339.977z"/>
		<path fill-rule="evenodd" clip-rule="evenodd" fill="#F2523B" d="M118.979,285.963c-0.033,2.065-0.166,4.146,0.98,6.019
			c-1.162,0.716-0.938,1.897-1.002,2.981c-0.326-0.001-0.653-0.001-0.979-0.001c-1.573-2.622-0.95-5.521-0.977-8.313
			c-0.071-7.332-0.055-14.665-0.003-21.996c0.011-1.599-0.55-3.38,0.98-4.686c2.114,3.369,0.756,7.076,0.933,10.612
			C119.168,275.695,118.978,280.834,118.979,285.963z"/>
		<path fill-rule="evenodd" clip-rule="evenodd" fill="#FD492A" d="M179.019,358.998c5.966-0.004,11.934-0.008,17.899-0.012
			c-0.32,0.654-0.64,1.307-0.959,1.96c-5.654-0.004-11.309-0.009-16.962-0.014C179.004,360.288,179.011,359.644,179.019,358.998z"/>
		<path fill-rule="evenodd" clip-rule="evenodd" fill="#F7DDD8" d="M282.871,320.036c0.542,1.395,2.163,2.755,0.277,4.261
			c-0.801,0.638-1.81,0.775-2.701,0.154c-1.042-0.727-1.268-1.858-1.015-3.018c0.457-2.095,2.012-1.646,3.458-1.375
			C282.888,320.06,282.871,320.036,282.871,320.036z"/>
		<path fill-rule="evenodd" clip-rule="evenodd" fill="#FADAD6" d="M152.126,133.042c0.268-0.402,0.535-0.806,0.802-1.209
			c1.803-0.663,3.008-0.303,2.834,1.88c-0.094,1.176-0.585,2.533-1.918,2.556C151.53,136.31,152.055,134.475,152.126,133.042z"/>
		<path fill-rule="evenodd" clip-rule="evenodd" fill="#F05039" d="M215.966,383.95c-4.333-0.001-8.667-0.001-13-0.001
			C207.299,382.323,211.633,382.321,215.966,383.95z"/>
		<path fill-rule="evenodd" clip-rule="evenodd" fill="#E8EDF0" d="M254.937,362.939c-0.911-0.06-1.719-0.303-2.156-1.208
			c0.109-0.494,0.219-0.988,0.329-1.482c0.763-0.254,1.575-0.693,2.222,0.15C256.054,361.343,255.819,362.208,254.937,362.939z"/>
		<path fill-rule="evenodd" clip-rule="evenodd" fill="#F05039" d="M229.965,380.953c-0.335,2.679-2.432,1.811-4.007,1.99
			C227.293,382.28,228.629,381.617,229.965,380.953z"/>
		<path fill-rule="evenodd" clip-rule="evenodd" fill="#F1523C" d="M198.969,143.982c-0.758,1.818-2.286,2.094-4,1.996
			C195.988,144.684,197.383,144.141,198.969,143.982z"/>
		<path fill-rule="evenodd" clip-rule="evenodd" fill="#F05039" d="M222.965,382.953c-1.401,1.664-3.315,0.757-5,0.996
			C219.367,382.289,221.28,383.192,222.965,382.953z"/>
		<path fill-rule="evenodd" clip-rule="evenodd" fill="#FEFEFE" d="M643.013,261.995c-2.92,8.819-0.086,18.056-1.956,26.952
			c1.328,3.681,1.336,7.362-0.007,11.042c0.55,3.749-3.929,4.67-4.407,7.841c-5.431,11.378-11.938,22.123-19.079,32.5
			c-3.903,5.146-7.638,10.452-13.229,14.017c-6.854,3.366-12.139,2.494-15.725-4.134c-6.119-11.31-10.866-23.133-7.621-36.589
			c1.213-5.03,0.363-10.271,0.478-15.415c0.129-5.814-0.167-11.635,0.164-17.444c0.041-0.548,0.146-1.09,0.28-1.622
			c1.624-5.24,2.961-10.556,3.89-15.973c0.403-1.499,0.849-2.986,1.348-4.456c2.811-9.274,5.994-18.432,8.516-27.795
			c1.922-5.523,4.6-10.708,7.383-15.821c1.924-3.536,3.949-3.889,7.37-1.751c0.849,0.53,1.54,1.729,2.394,1.731
			c9.67,0.034,12.772,8.248,17.297,14.252c5.821,7.723,10.558,16.192,12.745,25.814
			C643.139,257.421,644.664,259.673,643.013,261.995z"/>
		<path fill-rule="evenodd" clip-rule="evenodd" fill="#EF523D" d="M586.957,262.98c-0.491,5.622-2.159,10.966-3.843,16.306
			c-0.848-0.391-0.499-1.27-0.773-1.894c0.211,0.867-0.198,1.888,0.646,2.597c-0.082,10.954,1.372,22.2-0.649,32.784
			c-2.328,12.188,1.396,22.525,5.31,33.142c2.542,6.896,7.089,9.816,12.144,8.83c1.74-0.34,3.354-1.319,5.026-2.007
			c0.839,0.169,1.669,0.351,2.103,1.218c-2.768,4.269-6.763,4.495-11.489,4.505c-5.774,0.012-6.884-4.131-9.294-7.628
			c-5.324-7.729-6.408-16.944-8.639-25.588c-1.822-7.062,0.276-14.701,1.336-22.03c0.162-1.121,1.254-2.417,0.931-3.25
			c-3.987-10.305,1.909-20.134,1.38-30.299c-0.22-4.216,3.137-7.794,4.773-11.702c0.166,0.156,0.332,0.313,0.501,0.469
			C587.505,259.842,586.118,261.542,586.957,262.98z"/>
		<path fill-rule="evenodd" clip-rule="evenodd" fill="#F14F38" d="M641.651,255.093c-3.964-13.426-11.538-24.758-20.451-35.321
			c-1.577-1.869-3.283-3.227-5.954-2.74c-2.175,0.397-3.958-0.619-5.318-2.145c-2.951-3.31-4.666-1.836-6.136,1.35
			c-2.269,4.921-4.581,9.822-6.876,14.73c-3.227-1.517-1.051-3.933-0.997-5.996v-0.001c1.959-0.688,1.119-2.774,1.999-4
			c0.358-0.923,0.668-1.868,1.082-2.765c3.709-8.041,5.912-7.951,14.14-5.179c5.204,1.754,9.756,3.396,12.993,7.775
			c7.341,9.932,14.421,20.027,17.782,32.166C644.095,254.671,643.429,255.474,641.651,255.093z"/>
		<path fill-rule="evenodd" clip-rule="evenodd" fill="#EF523D" d="M595.919,224.972c0.324,2-0.812,4.244,0.997,5.996
			c-2.612,9.52-5.399,18.983-8.854,28.237c-0.966,0.025-1.534-0.638-2.141-1.237l-0.004-0.003
			c-1.054-5.335,2.457-9.604,3.318-14.348C590.458,236.89,594.189,231.341,595.919,224.972z"/>
		<path fill-rule="evenodd" clip-rule="evenodd" fill="#F0523C" d="M616.642,339.827c6.264-9.62,12.187-19.443,17.638-29.549
			c0.545-1.01,1.125-2.068,2.363-2.448c1.703,0.844,2.683,1.721,1.166,3.762c-7.402,9.959-12.007,21.702-19.893,31.363
			C616.857,342.171,616.786,340.983,616.642,339.827z"/>
		<path fill-rule="evenodd" clip-rule="evenodd" fill="#F2513A" d="M616.642,339.827c1.36,0.662,1.259,1.918,1.274,3.128
			c-3.659,3.673-6.666,7.999-10.996,11.001c-0.915-0.035-1.705-0.287-2.103-1.218C609.497,349.11,612.922,344.334,616.642,339.827z"
			/>
		<path fill-rule="evenodd" clip-rule="evenodd" fill="#F1553F" d="M641.651,255.093c1.053-0.392,1.832-1.073,2.264-2.125
			c3.436,4.42,2.128,9.494,2.298,14.405c-1.771-1.526-1.333-4.071-3.2-5.378C642.56,259.694,642.105,257.394,641.651,255.093z"/>
		<path fill-rule="evenodd" clip-rule="evenodd" fill="#F84D35" d="M641.05,299.989c-0.842-3.681-0.159-7.361,0.007-11.042
			c0.649-0.137,1.624-1.697,1.713-0.654c0.351,4.089,0.35,8.245,0.003,12.335C642.684,301.675,641.706,300.108,641.05,299.989z"/>
		<path fill-rule="evenodd" clip-rule="evenodd" fill="#EF523D" d="M597.918,220.97c-0.188,1.572,0.677,3.671-1.999,4
			C596.585,223.638,597.252,222.304,597.918,220.97z"/>
		<path fill-rule="evenodd" clip-rule="evenodd" fill="#F0543F" d="M567.92,340.957c-1.815-0.757-2.091-2.287-1.999-3.999
			C567.224,337.973,567.762,339.371,567.92,340.957z"/>
		<path fill-rule="evenodd" clip-rule="evenodd" fill="#5E5E5E" d="M254.922,448.966c0.698-0.195,1.752-0.097,1.553-1.202
			c-0.062-0.345-0.962-0.538-1.479-0.801c1.47-1.781,0.12-6.63,3.214-5.644c4.184,1.334-1.03,4.134-0.53,6.653
			C258.068,449.919,256.61,450.669,254.922,448.966z"/>
		<path fill-rule="evenodd" clip-rule="evenodd" fill="#CCCCCC" d="M336.952,575.927c-0.132,0.807-0.166,1.646-0.418,2.412
			c-0.374,1.135-1.026,2.177-2.438,1.939c-1.944-0.327-1.498-1.911-1.29-3.115c0.188-1.088,0.769-2.106,1.177-3.156
			C336.095,572.912,336.914,573.814,336.952,575.927z"/>
		<path fill-rule="evenodd" clip-rule="evenodd" fill="#626262" d="M369.755,432.779c-0.295,1.008-0.874,1.811-1.999,1.684
			c-1.322-0.148-1.935-1.123-1.788-2.381c0.143-1.212,1.091-1.474,2.145-1.268C369.153,431.017,369.871,431.565,369.755,432.779z"/>
		<path fill-rule="evenodd" clip-rule="evenodd" fill="#696969" d="M344.496,564.859c-1.142-0.166-1.673-0.891-1.674-1.975
			c-0.001-1.155,0.14-2.447,1.689-2.3c1.082,0.103,1.439,1.178,1.479,2.189C346.031,563.817,345.701,564.672,344.496,564.859z"/>
		<path fill-rule="evenodd" clip-rule="evenodd" fill="#757575" d="M334.967,570.892c-0.926-0.759-2.795-1.171-1.365-2.901
			c0.588-0.713,1.676-1.481,2.623-0.717c1.511,1.222,0.335,2.337-0.455,3.392C335.692,571.413,335.425,571.488,334.967,570.892z"/>
		<path fill-rule="evenodd" clip-rule="evenodd" fill="#262626" d="M352.08,428.951c0.863,0.065,1.589,0.379,1.673,1.328
			c0.081,0.925-0.438,1.525-1.391,1.466c-1.152-0.072-1.628-0.938-1.66-1.944C350.676,428.933,351.478,429.015,352.08,428.951z"/>
		<path fill-rule="evenodd" clip-rule="evenodd" fill="#606060" d="M351.255,562.847c0.898-0.055,1.572,0.286,1.739,1.213
			c0.153,0.849-0.057,1.769-1.108,1.536c-0.642-0.143-1.336-0.861-1.634-1.495C349.974,563.511,350.483,562.931,351.255,562.847z"/>
		<path fill-rule="evenodd" clip-rule="evenodd" fill="#1E1E1E" d="M334.967,570.892c0.248-0.149,0.516-0.225,0.803-0.227
			c-0.569,1.97,3.236,2.957,1.182,5.262c-0.485-1.42-1.406-2.167-2.969-1.92C334.311,572.968,334.639,571.931,334.967,570.892z"/>
		<path fill-rule="evenodd" clip-rule="evenodd" fill="#676767" d="M458.621,609.735c-0.051,0.961-0.562,1.654-1.501,1.499
			c-1.151-0.191-1.475-1.183-1.389-2.254c0.069-0.862,0.412-1.786,1.409-1.569C458.206,607.644,458.461,608.74,458.621,609.735z"/>
		<path fill-rule="evenodd" clip-rule="evenodd" fill="#3F3F3F" d="M455.401,624.834c-0.948-0.186-1.441-0.697-1.348-1.667
			c0.076-0.781,0.643-1.173,1.297-1.139c0.912,0.048,1.411,0.643,1.314,1.62C456.587,624.436,456.004,624.663,455.401,624.834z"/>
		<path fill-rule="evenodd" clip-rule="evenodd" fill="#F25039" d="M386.051,173.999c4.283,0.519,8.735-1.199,12.894,0.974
			C394.664,174.418,390.21,176.164,386.051,173.999z"/>
		<path fill-rule="evenodd" clip-rule="evenodd" fill="#E85540" d="M322.949,322.96c0.306-0.52,0.767-1.527,0.895-1.486
			c1.666,0.529,1.911,2.006,2.094,3.488c-0.898,0.624-1.508,2.107-2.985,0.997C322.952,324.96,322.951,323.96,322.949,322.96z"/>
		<path fill-rule="evenodd" clip-rule="evenodd" fill="#F25039" d="M384.941,252.964c-0.448,3.321,1.041,6.835-0.996,9.998
			C384.398,259.642,382.911,256.128,384.941,252.964z"/>
		<path fill-rule="evenodd" clip-rule="evenodd" fill="#F0513A" d="M334.952,199.971c0.331-0.332,0.661-0.665,0.992-0.998
			c0.912,0.583,2.246,0.684,2.492,2.003c0.041,0.222-0.568,0.781-0.916,0.818C336.186,201.939,335.479,201.047,334.952,199.971z"/>
		<path fill-rule="evenodd" clip-rule="evenodd" fill="#FEFEFE" d="M528.195,494.697c-0.656,5.245-2.688,9.784-2.938,14.813
			c-0.166,3.343-1.208,6.784-1.229,10.271c-0.009,1.516,0.071,3.246-1.728,3.737c-5.553,1.517-11.089,3.516-16.756,4.064
			c-4.24,0.411-2.882-3.748-2.397-6.01c1.909-8.91,4.62-17.606,7.316-26.315c1.886-6.092,4.231-11.766,8.393-16.629
			c1.088-1.272,2.063-2.735,4.054-2.204c2.117,0.564,1.77,2.433,2.098,4.032C526.006,485.314,527.162,490.137,528.195,494.697z"/>
		<path fill-rule="evenodd" clip-rule="evenodd" fill="#F0503A" d="M473.934,240.968c-1.334,0.667-2.668,1.333-4.003,1.999
			C470.266,240.298,472.361,241.157,473.934,240.968z"/>
		<path fill-rule="evenodd" clip-rule="evenodd" fill="#F6371B" d="M488.928,239.874c-0.633-0.061-1.422-0.028-1.413-0.908
			c0.009-0.87,0.792-0.895,1.432-0.892c0.642,0.002,1.416,0.052,1.412,0.917C490.354,239.879,489.561,239.82,488.928,239.874z"/>
		<path fill-rule="evenodd" clip-rule="evenodd" fill="#FC3E20" d="M438.238,162.281c0.865-0.08,1.729-0.159,2.594-0.237
			c-0.013,2.052-1.413,1.968-2.837,1.846C438.076,163.354,438.157,162.817,438.238,162.281z"/>
		<path fill-rule="evenodd" clip-rule="evenodd" fill="#E1BFBB" d="M239.803,218.71c-1.581,1.28-3.018,1.542-3.682-0.826
			c-0.345-1.229-0.695-2.956,0.722-3.537c2.236-0.916,2.657,1.055,3.137,2.634C239.921,217.559,239.862,218.135,239.803,218.71z"/>
		<path fill-rule="evenodd" clip-rule="evenodd" fill="#F64D34" d="M585.922,257.968c0.936,0.029,1.721,0.318,2.141,1.237
			c0.009,1.369-0.239,2.664-1.105,3.776C585.231,261.595,586.163,259.661,585.922,257.968z"/>
		<path fill-rule="evenodd" clip-rule="evenodd" fill="#F73C21" d="M582.987,279.989c-1.523-1.033-0.976-2.47-0.999-4.06
			c1.57,0.975,0.567,2.383,1.126,3.357C583.232,279.55,583.191,279.784,582.987,279.989z"/>
	</g>
</g>
</svg>
